<svg width="85" height="60" viewBox="0 0 85 60" fill="none" xmlns="http://www.w3.org/2000/svg">
<g clip-path="url(#clip0_35_2)">
<path d="M9.7 8.40002V10.58H20.72V8.40002H9.7ZM11.76 3.48002V5.66002H20.22V3.48002H11.76ZM14.1 0.0200195V18.8H16.44V0.0200195H14.1ZM13.46 9.52002C12.48 12.12 10.54 14.72 8.38 16.06C8.9 16.48 9.62 17.32 9.98 17.9C12.28 16.22 14.18 13.26 15.32 10.08L13.46 9.52002ZM17.2 9.62002L15.52 10.14C16.4 13 17.88 16.02 19.54 17.76C19.94 17.14 20.74 16.3 21.28 15.88C19.62 14.48 18.02 11.98 17.2 9.62002ZM11.08 1.00002C10.76 3.24002 10.16 5.48002 9.16 6.90002C9.7 7.16002 10.64 7.76002 11.06 8.10002C12.1 6.50002 12.88 3.96002 13.26 1.38002L11.08 1.00002ZM2.32 3.76002V5.96002H9.54V3.76002H2.32ZM4.92 0.0200195V18.8H7.26V0.0200195H4.92ZM4.9 5.40002C4.38 7.92002 3.22 11.08 1.88 12.76C2.28 13.4 2.8 14.5 3.04 15.2C4.42 13.12 5.62 9.22002 6.18 5.90002L4.9 5.40002ZM7.16 6.42002L6.1 7.26002C6.66 8.28002 7.8 10.62 8.24 11.82L9.62 10.2C9.28 9.60002 7.62 7.00002 7.16 6.42002ZM35.76 1.34002C36.68 2.00002 37.8 3.00002 38.32 3.68002L40 2.24002C39.44 1.58002 38.26 0.64002 37.36 0.0200195L35.76 1.34002ZM22.52 3.42002V5.76002H40.52V3.42002H22.52ZM23.26 8.06002V10.38H31.92V8.06002H23.26ZM26.3 9.38002V16.16H28.7V9.38002H26.3ZM22.5 15.82L23.18 18.24C25.78 17.7 29.32 16.96 32.62 16.24L32.44 14.1C28.84 14.78 24.92 15.46 22.5 15.82ZM32.34 0.10002C32.36 9.36002 33.62 18.82 37.96 18.82C39.86 18.82 40.68 17.88 41.04 14.06C40.36 13.82 39.48 13.24 38.94 12.68C38.82 15.2 38.6 16.3 38.16 16.3C36.26 16.3 34.74 8.32002 34.92 0.10002H32.34ZM43.34 15.86L43.66 18.2C47.26 18.06 52.54 17.82 57.44 17.54L57.52 15.34C52.48 15.56 46.92 15.76 43.34 15.86ZM43.24 9.90002V12.14H59.88V9.90002H43.24ZM46.8 6.06002V8.26002H56.18V6.06002H46.8ZM48.14 11.36C47.64 13.04 46.68 15.26 45.86 16.72L47.96 17.42C48.86 16.08 49.94 14 50.88 12.12L48.14 11.36ZM53.1 13.42C54.82 15.02 56.74 17.3 57.58 18.82L59.8 17.48C58.88 15.96 57.02 13.86 55.22 12.32L53.1 13.42ZM51.48 2.36002C53.18 4.68002 56.56 7.20002 59.56 8.60002C60 7.88002 60.54 7.02002 61.12 6.42002C57.94 5.28002 54.76 3.00002 52.64 0.060019H50.1C48.62 2.42002 45.42 5.28002 42 6.78002C42.5 7.30002 43.14 8.20002 43.42 8.78002C46.74 7.20002 49.86 4.64002 51.48 2.36002ZM69.68 15.88V18.24H81.08V15.88H69.68ZM70.5 6.22002V8.52002H80.6V6.22002H70.5ZM74.32 0.220019V17.02H76.78V0.220019H74.32ZM62.5 3.72002V5.90002H69.06V3.72002H62.5ZM65.36 10.56V18.82H67.74V7.72002L65.36 10.56ZM65.36 0.0400192V4.74002H67.74V0.0400192H65.36ZM67.5 8.40002L66.18 9.56002C67.08 10.44 68.76 12.28 69.54 13.32L71 11.38C70.46 10.88 68.2 8.88002 67.5 8.40002ZM68.18 3.72002V4.16002C67.12 7.10002 64.48 10.04 61.76 11.52C62.12 11.98 62.68 13.16 62.9 13.8C65.88 11.92 68.9 8.42002 70.42 4.52002L69.08 3.64002L68.66 3.72002H68.18Z" fill="black"/>
<path d="M0.97644 27.2725H10.7722L19.0819 47.5353H19.4654L27.7751 27.2725H37.5709V59.9998H29.8685V39.8968H29.5968L21.7346 59.7921H16.8127L8.95052 39.785H8.67885V59.9998H0.97644V27.2725ZM50.4149 27.2725V59.9998H42.5047V27.2725H50.4149ZM55.3807 59.9998V27.2725H63.2909V41.1113H63.7223L74.5409 27.2725H83.8573L72.2557 41.8784L84.065 59.9998H74.6048L66.4549 47.1358L63.2909 51.1308V59.9998H55.3807Z" fill="black"/>
</g>
<defs>
<clipPath id="clip0_35_2">
<rect width="85" height="60" fill="white"/>
</clipPath>
</defs>
</svg>
