<svg xmlns="http://www.w3.org/2000/svg" xmlns:xlink="http://www.w3.org/1999/xlink" width="800" zoomAndPan="magnify" viewBox="0 0 600 225" height="300" preserveAspectRatio="xMidYMid meet" version="1.0"><defs><g/></defs><g fill="#000000" fill-opacity="1"><g transform="translate(189.451367, 149.135136)"><g><path d="M 111.390625 0 L 95.199219 -83.421875 L 73.363281 -83.421875 L 56.0625 -24.902344 L 38.644531 -83.421875 L 16.808594 -83.421875 L 0.613281 0 L 20.855469 0 L 30.667969 -57.535156 L 46.984375 0 L 65.019531 0 L 81.335938 -57.535156 L 91.148438 0 Z M 111.390625 0 "/></g></g></g><g fill="#000000" fill-opacity="1"><g transform="translate(301.449028, 149.135136)"><g><path d="M 25.761719 0 L 25.761719 -83.421875 L 7.359375 -83.421875 L 7.359375 0 Z M 25.761719 0 "/></g></g></g><g fill="#000000" fill-opacity="1"><g transform="translate(334.569913, 149.135136)"><g><path d="M 25.761719 -37.292969 L 52.136719 0 L 76.917969 0 L 43.671875 -41.710938 L 75.691406 -83.421875 L 52.136719 -83.421875 L 25.761719 -46.128906 L 25.761719 -83.421875 L 7.359375 -83.421875 L 7.359375 0 L 25.761719 0 Z M 25.761719 -37.292969 "/></g></g></g><g fill="#000000" fill-opacity="1"><g transform="translate(61.053034, 176.937304)"><g/></g></g><g fill="#000000" fill-opacity="1"><g transform="translate(77.025514, 176.937304)"><g><path d="M 12.152344 0 L 12.152344 -1.648438 L 3.679688 -1.648438 L 3.679688 -7.789062 L 11.898438 -7.789062 L 11.898438 -9.464844 L 3.679688 -9.464844 L 3.679688 -15.601562 L 12.152344 -15.601562 L 12.152344 -17.25 L 1.902344 -17.25 L 1.902344 0 Z M 12.152344 0 "/></g></g></g><g fill="#000000" fill-opacity="1"><g transform="translate(100.214413, 176.937304)"><g><path d="M 3.679688 -12.710938 L 13.371094 1.066406 L 13.371094 -17.25 L 11.59375 -17.25 L 11.59375 -4.566406 L 1.902344 -18.34375 L 1.902344 0 L 3.679688 0 Z M 3.679688 -12.710938 "/></g></g></g><g fill="#000000" fill-opacity="1"><g transform="translate(124.620907, 176.937304)"><g><path d="M 18.925781 -8.066406 L 9.945312 -8.066406 L 9.945312 -6.519531 L 16.945312 -6.519531 C 16.414062 -5.023438 15.527344 -3.804688 14.257812 -2.917969 C 12.988281 -2.003906 11.570312 -1.574219 10.019531 -1.574219 C 8.042969 -1.574219 6.367188 -2.257812 4.972656 -3.652344 C 3.601562 -5.046875 2.917969 -6.75 2.917969 -8.703125 C 2.917969 -10.65625 3.601562 -12.328125 4.996094 -13.726562 C 6.367188 -15.09375 8.042969 -15.804688 10.019531 -15.804688 C 11.492188 -15.804688 12.835938 -15.375 14.03125 -14.535156 C 15.246094 -13.699219 16.109375 -12.609375 16.667969 -11.214844 L 18.546875 -11.214844 C 17.960938 -13.117188 16.871094 -14.636719 15.296875 -15.804688 C 13.726562 -16.972656 11.898438 -17.582031 9.84375 -17.582031 C 8.726562 -17.582031 7.636719 -17.328125 6.570312 -16.871094 C 5.480469 -16.414062 4.542969 -15.78125 3.730469 -14.96875 C 2.917969 -14.15625 2.285156 -13.21875 1.828125 -12.152344 C 1.371094 -11.0625 1.140625 -9.894531 1.140625 -8.675781 C 1.140625 -7.457031 1.371094 -6.292969 1.828125 -5.226562 C 2.285156 -4.136719 2.917969 -3.195312 3.730469 -2.386719 C 4.542969 -1.574219 5.480469 -0.9375 6.570312 -0.480469 C 7.636719 -0.0234375 8.804688 0.203125 10.019531 0.203125 C 12.101562 0.203125 13.980469 -0.457031 15.652344 -1.800781 C 17.328125 -3.171875 18.367188 -4.894531 18.75 -7.003906 Z M 18.925781 -8.066406 "/></g></g></g><g fill="#000000" fill-opacity="1"><g transform="translate(153.821628, 176.937304)"><g><path d="M 3.679688 0 L 3.679688 -17.25 L 1.902344 -17.25 L 1.902344 0 Z M 3.679688 0 "/></g></g></g><g fill="#000000" fill-opacity="1"><g transform="translate(168.538176, 176.937304)"><g><path d="M 3.679688 -12.710938 L 13.371094 1.066406 L 13.371094 -17.25 L 11.59375 -17.25 L 11.59375 -4.566406 L 1.902344 -18.34375 L 1.902344 0 L 3.679688 0 Z M 3.679688 -12.710938 "/></g></g></g><g fill="#000000" fill-opacity="1"><g transform="translate(192.94467, 176.937304)"><g><path d="M 12.152344 0 L 12.152344 -1.648438 L 3.679688 -1.648438 L 3.679688 -7.789062 L 11.898438 -7.789062 L 11.898438 -9.464844 L 3.679688 -9.464844 L 3.679688 -15.601562 L 12.152344 -15.601562 L 12.152344 -17.25 L 1.902344 -17.25 L 1.902344 0 Z M 12.152344 0 "/></g></g></g><g fill="#000000" fill-opacity="1"><g transform="translate(216.133569, 176.937304)"><g><path d="M 12.152344 0 L 12.152344 -1.648438 L 3.679688 -1.648438 L 3.679688 -7.789062 L 11.898438 -7.789062 L 11.898438 -9.464844 L 3.679688 -9.464844 L 3.679688 -15.601562 L 12.152344 -15.601562 L 12.152344 -17.25 L 1.902344 -17.25 L 1.902344 0 Z M 12.152344 0 "/></g></g></g><g fill="#000000" fill-opacity="1"><g transform="translate(239.322468, 176.937304)"><g><path d="M 3.679688 -8.523438 L 3.679688 -15.550781 L 7.6875 -15.550781 C 8.726562 -15.550781 9.566406 -15.222656 10.199219 -14.5625 C 10.808594 -13.902344 11.136719 -13.089844 11.136719 -12.074219 C 11.136719 -11.0625 10.808594 -10.222656 10.148438 -9.539062 C 9.488281 -8.855469 8.675781 -8.523438 7.6875 -8.523438 Z M 12.914062 -12.050781 C 12.914062 -13.523438 12.355469 -14.789062 11.289062 -15.78125 C 10.25 -16.746094 8.957031 -17.25 7.433594 -17.25 L 1.902344 -17.25 L 1.902344 0 L 3.679688 0 L 3.679688 -6.824219 L 5.734375 -6.824219 L 10.808594 0 L 13.191406 0 L 7.863281 -6.824219 C 9.210938 -6.902344 10.351562 -7.382812 11.289062 -8.269531 C 12.355469 -9.261719 12.914062 -10.527344 12.914062 -12.050781 Z M 12.914062 -12.050781 "/></g></g></g><g fill="#000000" fill-opacity="1"><g transform="translate(262.257718, 176.937304)"><g><path d="M 7.027344 -4.871094 C 7.027344 -6.496094 8.320312 -7.636719 9.917969 -8.703125 C 11.390625 -6.875 13.320312 -5.097656 15.171875 -3.449219 C 13.980469 -2.257812 12.609375 -1.546875 11.136719 -1.546875 C 8.726562 -1.546875 7.027344 -2.765625 7.027344 -4.871094 Z M 9.210938 -14.5625 C 9.210938 -16.238281 10.199219 -17.300781 11.746094 -17.300781 C 13.066406 -17.300781 13.851562 -16.289062 13.851562 -15.09375 C 13.851562 -13.371094 12.355469 -12.226562 10.578125 -11.113281 C 9.742188 -12.328125 9.210938 -13.496094 9.210938 -14.5625 Z M 21.160156 -1.546875 C 20.472656 -1.980469 19.28125 -2.738281 17.988281 -3.78125 C 19.304688 -5.632812 20.195312 -7.660156 20.703125 -10.019531 L 18.570312 -10.019531 C 18.242188 -8.042969 17.554688 -6.445312 16.515625 -5.023438 C 14.839844 -6.496094 13.015625 -8.144531 11.59375 -9.792969 C 13.699219 -11.164062 15.703125 -12.660156 15.703125 -15.171875 C 15.703125 -17.429688 14.132812 -18.953125 11.695312 -18.953125 C 9.132812 -18.953125 7.28125 -17.199219 7.28125 -14.460938 C 7.28125 -13.015625 7.890625 -11.542969 8.878906 -10.097656 C 6.824219 -8.804688 4.894531 -7.304688 4.894531 -4.769531 C 4.894531 -1.699219 7.253906 0.304688 10.960938 0.304688 C 13.394531 0.304688 15.171875 -0.632812 16.644531 -2.132812 C 18.039062 -0.964844 19.105469 -0.253906 20.066406 0.328125 Z M 21.160156 -1.546875 "/></g></g></g><g fill="#000000" fill-opacity="1"><g transform="translate(296.760008, 176.937304)"><g><path d="M 0.507812 -15.652344 L 4.695312 -15.652344 L 4.695312 -0.0507812 L 6.46875 -0.0507812 L 6.46875 -15.652344 L 10.65625 -15.652344 L 10.65625 -17.300781 L 0.507812 -17.300781 Z M 0.507812 -15.652344 "/></g></g></g><g fill="#000000" fill-opacity="1"><g transform="translate(317.057158, 176.937304)"><g><path d="M 12.152344 0 L 12.152344 -1.648438 L 3.679688 -1.648438 L 3.679688 -7.789062 L 11.898438 -7.789062 L 11.898438 -9.464844 L 3.679688 -9.464844 L 3.679688 -15.601562 L 12.152344 -15.601562 L 12.152344 -17.25 L 1.902344 -17.25 L 1.902344 0 Z M 12.152344 0 "/></g></g></g><g fill="#000000" fill-opacity="1"><g transform="translate(340.246057, 176.937304)"><g><path d="M 17.734375 -5.277344 L 15.78125 -5.277344 C 15.171875 -4.160156 14.335938 -3.246094 13.269531 -2.585938 C 12.203125 -1.902344 11.011719 -1.574219 9.742188 -1.574219 C 7.839844 -1.574219 6.214844 -2.257812 4.871094 -3.679688 C 3.550781 -5.023438 2.917969 -6.671875 2.917969 -8.601562 C 2.917969 -10.527344 3.550781 -12.175781 4.871094 -13.546875 C 5.480469 -14.183594 6.214844 -14.6875 7.054688 -15.070312 C 7.863281 -15.449219 8.675781 -15.652344 9.488281 -15.652344 C 10.273438 -15.652344 10.960938 -15.550781 11.570312 -15.375 C 13.421875 -14.816406 14.816406 -13.699219 15.753906 -12 L 17.707031 -12 C 17.046875 -13.625 16.007812 -14.941406 14.5625 -15.957031 C 13.089844 -16.972656 11.492188 -17.480469 9.742188 -17.480469 C 7.332031 -17.480469 5.300781 -16.59375 3.628906 -14.839844 C 2.839844 -14.03125 2.234375 -13.066406 1.800781 -12 C 1.34375 -10.933594 1.140625 -9.792969 1.140625 -8.601562 C 1.140625 -6.164062 1.953125 -4.109375 3.628906 -2.386719 C 5.300781 -0.609375 7.332031 0.253906 9.742188 0.253906 C 11.492188 0.253906 13.089844 -0.253906 14.585938 -1.269531 C 16.035156 -2.285156 17.074219 -3.601562 17.734375 -5.277344 Z M 17.734375 -5.277344 "/></g></g></g><g fill="#000000" fill-opacity="1"><g transform="translate(367.874072, 176.937304)"><g><path d="M 3.679688 0 L 3.679688 -7.710938 L 11.519531 -7.710938 L 11.519531 0 L 13.292969 0 L 13.292969 -17.25 L 11.519531 -17.25 L 11.519531 -9.488281 L 3.679688 -9.488281 L 3.679688 -17.25 L 1.902344 -17.25 L 1.902344 0 Z M 3.679688 0 "/></g></g></g><g fill="#000000" fill-opacity="1"><g transform="translate(392.204458, 176.937304)"><g><path d="M 3.679688 -12.710938 L 13.371094 1.066406 L 13.371094 -17.25 L 11.59375 -17.25 L 11.59375 -4.566406 L 1.902344 -18.34375 L 1.902344 0 L 3.679688 0 Z M 3.679688 -12.710938 "/></g></g></g><g fill="#000000" fill-opacity="1"><g transform="translate(416.610952, 176.937304)"><g><path d="M 17.097656 -8.675781 C 17.097656 -6.699219 16.390625 -5.023438 15.019531 -3.652344 C 13.625 -2.257812 11.949219 -1.574219 9.996094 -1.574219 C 8.042969 -1.574219 6.367188 -2.257812 4.996094 -3.652344 C 3.601562 -5.023438 2.917969 -6.699219 2.917969 -8.675781 C 2.917969 -10.605469 3.601562 -12.277344 4.996094 -13.675781 C 6.367188 -15.042969 8.042969 -15.753906 9.996094 -15.753906 C 11.949219 -15.753906 13.625 -15.042969 15.019531 -13.675781 C 16.390625 -12.277344 17.097656 -10.605469 17.097656 -8.675781 Z M 18.875 -8.675781 C 18.875 -9.894531 18.621094 -11.035156 18.164062 -12.125 C 17.707031 -13.191406 17.074219 -14.132812 16.261719 -14.941406 C 15.449219 -15.730469 14.511719 -16.363281 13.445312 -16.820312 C 12.355469 -17.277344 11.214844 -17.53125 9.996094 -17.53125 C 8.777344 -17.53125 7.609375 -17.277344 6.546875 -16.820312 C 5.480469 -16.363281 4.542969 -15.730469 3.730469 -14.941406 C 2.917969 -14.132812 2.285156 -13.191406 1.828125 -12.125 C 1.371094 -11.035156 1.140625 -9.894531 1.140625 -8.675781 C 1.140625 -7.457031 1.371094 -6.292969 1.828125 -5.226562 C 2.285156 -4.136719 2.917969 -3.195312 3.730469 -2.386719 C 4.542969 -1.574219 5.480469 -0.9375 6.546875 -0.480469 C 7.609375 -0.0234375 8.777344 0.203125 9.996094 0.203125 C 11.214844 0.203125 12.355469 -0.0234375 13.445312 -0.480469 C 14.511719 -0.9375 15.449219 -1.574219 16.261719 -2.386719 C 17.074219 -3.195312 17.707031 -4.136719 18.164062 -5.226562 C 18.621094 -6.292969 18.875 -7.457031 18.875 -8.675781 Z M 18.875 -8.675781 "/></g></g></g><g fill="#000000" fill-opacity="1"><g transform="translate(445.760949, 176.937304)"><g><path d="M 3.679688 -1.777344 L 3.679688 -17.25 L 1.902344 -17.25 L 1.902344 0 L 9.84375 0 L 9.84375 -1.777344 Z M 3.679688 -1.777344 "/></g></g></g><g fill="#000000" fill-opacity="1"><g transform="translate(465.246355, 176.937304)"><g><path d="M 17.097656 -8.675781 C 17.097656 -6.699219 16.390625 -5.023438 15.019531 -3.652344 C 13.625 -2.257812 11.949219 -1.574219 9.996094 -1.574219 C 8.042969 -1.574219 6.367188 -2.257812 4.996094 -3.652344 C 3.601562 -5.023438 2.917969 -6.699219 2.917969 -8.675781 C 2.917969 -10.605469 3.601562 -12.277344 4.996094 -13.675781 C 6.367188 -15.042969 8.042969 -15.753906 9.996094 -15.753906 C 11.949219 -15.753906 13.625 -15.042969 15.019531 -13.675781 C 16.390625 -12.277344 17.097656 -10.605469 17.097656 -8.675781 Z M 18.875 -8.675781 C 18.875 -9.894531 18.621094 -11.035156 18.164062 -12.125 C 17.707031 -13.191406 17.074219 -14.132812 16.261719 -14.941406 C 15.449219 -15.730469 14.511719 -16.363281 13.445312 -16.820312 C 12.355469 -17.277344 11.214844 -17.53125 9.996094 -17.53125 C 8.777344 -17.53125 7.609375 -17.277344 6.546875 -16.820312 C 5.480469 -16.363281 4.542969 -15.730469 3.730469 -14.941406 C 2.917969 -14.132812 2.285156 -13.191406 1.828125 -12.125 C 1.371094 -11.035156 1.140625 -9.894531 1.140625 -8.675781 C 1.140625 -7.457031 1.371094 -6.292969 1.828125 -5.226562 C 2.285156 -4.136719 2.917969 -3.195312 3.730469 -2.386719 C 4.542969 -1.574219 5.480469 -0.9375 6.546875 -0.480469 C 7.609375 -0.0234375 8.777344 0.203125 9.996094 0.203125 C 11.214844 0.203125 12.355469 -0.0234375 13.445312 -0.480469 C 14.511719 -0.9375 15.449219 -1.574219 16.261719 -2.386719 C 17.074219 -3.195312 17.707031 -4.136719 18.164062 -5.226562 C 18.621094 -6.292969 18.875 -7.457031 18.875 -8.675781 Z M 18.875 -8.675781 "/></g></g></g><g fill="#000000" fill-opacity="1"><g transform="translate(494.396352, 176.937304)"><g><path d="M 18.925781 -8.066406 L 9.945312 -8.066406 L 9.945312 -6.519531 L 16.945312 -6.519531 C 16.414062 -5.023438 15.527344 -3.804688 14.257812 -2.917969 C 12.988281 -2.003906 11.570312 -1.574219 10.019531 -1.574219 C 8.042969 -1.574219 6.367188 -2.257812 4.972656 -3.652344 C 3.601562 -5.046875 2.917969 -6.75 2.917969 -8.703125 C 2.917969 -10.65625 3.601562 -12.328125 4.996094 -13.726562 C 6.367188 -15.09375 8.042969 -15.804688 10.019531 -15.804688 C 11.492188 -15.804688 12.835938 -15.375 14.03125 -14.535156 C 15.246094 -13.699219 16.109375 -12.609375 16.667969 -11.214844 L 18.546875 -11.214844 C 17.960938 -13.117188 16.871094 -14.636719 15.296875 -15.804688 C 13.726562 -16.972656 11.898438 -17.582031 9.84375 -17.582031 C 8.726562 -17.582031 7.636719 -17.328125 6.570312 -16.871094 C 5.480469 -16.414062 4.542969 -15.78125 3.730469 -14.96875 C 2.917969 -14.15625 2.285156 -13.21875 1.828125 -12.152344 C 1.371094 -11.0625 1.140625 -9.894531 1.140625 -8.675781 C 1.140625 -7.457031 1.371094 -6.292969 1.828125 -5.226562 C 2.285156 -4.136719 2.917969 -3.195312 3.730469 -2.386719 C 4.542969 -1.574219 5.480469 -0.9375 6.570312 -0.480469 C 7.636719 -0.0234375 8.804688 0.203125 10.019531 0.203125 C 12.101562 0.203125 13.980469 -0.457031 15.652344 -1.800781 C 17.328125 -3.171875 18.367188 -4.894531 18.75 -7.003906 Z M 18.925781 -8.066406 "/></g></g></g><g fill="#000000" fill-opacity="1"><g transform="translate(523.597088, 176.937304)"><g><path d="M 8.574219 -8.117188 L 15.09375 -17.25 L 12.835938 -17.25 L 7.6875 -9.867188 L 2.535156 -17.25 L 0.253906 -17.25 L 6.800781 -8.09375 L 6.800781 0 L 8.574219 0 Z M 8.574219 -8.117188 "/></g></g></g></svg>