<svg xmlns="http://www.w3.org/2000/svg" xmlns:xlink="http://www.w3.org/1999/xlink" width="758" zoomAndPan="magnify" viewBox="0 0 568.5 358.49999" height="478" preserveAspectRatio="xMidYMid meet" version="1.0"><defs><g/></defs><g fill="#576066" fill-opacity="1"><g transform="translate(83.904495, 213.555981)"><g><path d="M 86.921875 -0.1875 L 60.296875 -0.1875 C 59.660156 -0.1875 59.210938 -0.375 58.953125 -0.75 C 58.703125 -1.132812 58.578125 -1.578125 58.578125 -2.078125 C 58.578125 -2.648438 58.703125 -3.21875 58.953125 -3.78125 C 59.210938 -4.351562 59.46875 -4.671875 59.71875 -4.734375 C 62.882812 -4.859375 64.90625 -5.207031 65.78125 -5.78125 C 66.664062 -6.351562 67.238281 -7.394531 67.5 -8.90625 C 67.6875 -10.175781 67.8125 -12.46875 67.875 -15.78125 C 67.9375 -19.101562 67.96875 -23.035156 67.96875 -27.578125 L 68.0625 -60.765625 C 66.613281 -56.972656 64.957031 -52.644531 63.09375 -47.78125 C 61.226562 -42.914062 59.28125 -37.859375 57.25 -32.609375 C 55.226562 -27.359375 53.269531 -22.285156 51.375 -17.390625 C 49.476562 -12.492188 47.773438 -8.117188 46.265625 -4.265625 C 45.816406 -3.066406 45.335938 -2.164062 44.828125 -1.5625 C 44.328125 -0.957031 43.664062 -0.65625 42.84375 -0.65625 C 42.019531 -0.65625 41.320312 -1.050781 40.75 -1.84375 C 40.1875 -2.632812 39.75 -3.597656 39.4375 -4.734375 C 38.988281 -6.191406 38.195312 -8.4375 37.0625 -11.46875 C 35.925781 -14.5 34.550781 -17.972656 32.9375 -21.890625 C 31.332031 -25.816406 29.628906 -29.957031 27.828125 -34.3125 C 26.023438 -38.675781 24.222656 -42.972656 22.421875 -47.203125 C 20.617188 -51.441406 18.957031 -55.332031 17.4375 -58.875 L 17.4375 -21.140625 C 17.4375 -17.285156 17.546875 -14.265625 17.765625 -12.078125 C 17.992188 -9.898438 18.4375 -8.320312 19.09375 -7.34375 C 19.757812 -6.363281 20.722656 -5.734375 21.984375 -5.453125 C 23.253906 -5.171875 24.929688 -4.960938 27.015625 -4.828125 C 27.710938 -4.453125 28.0625 -3.632812 28.0625 -2.375 C 28.0625 -1.800781 27.929688 -1.289062 27.671875 -0.84375 C 27.421875 -0.40625 27.015625 -0.1875 26.453125 -0.1875 L 3.21875 -0.1875 C 2.71875 -0.1875 2.335938 -0.40625 2.078125 -0.84375 C 1.828125 -1.289062 1.703125 -1.800781 1.703125 -2.375 C 1.703125 -3.507812 2.019531 -4.328125 2.65625 -4.828125 C 4.488281 -4.960938 5.988281 -5.171875 7.15625 -5.453125 C 8.320312 -5.734375 9.253906 -6.347656 9.953125 -7.296875 C 10.648438 -8.242188 11.140625 -9.757812 11.421875 -11.84375 C 11.703125 -13.9375 11.84375 -16.78125 11.84375 -20.375 L 11.84375 -49.109375 C 11.84375 -50.679688 11.84375 -52.351562 11.84375 -54.125 C 11.84375 -55.894531 11.828125 -57.488281 11.796875 -58.90625 C 11.765625 -60.332031 11.71875 -61.269531 11.65625 -61.71875 C 11.53125 -62.851562 11.304688 -63.734375 10.984375 -64.359375 C 10.671875 -64.992188 9.976562 -65.5 8.90625 -65.875 C 7.832031 -66.257812 6.03125 -66.609375 3.5 -66.921875 C 3.1875 -67.046875 2.9375 -67.34375 2.75 -67.8125 C 2.5625 -68.289062 2.46875 -68.785156 2.46875 -69.296875 C 2.46875 -69.867188 2.609375 -70.390625 2.890625 -70.859375 C 3.171875 -71.335938 3.628906 -71.578125 4.265625 -71.578125 L 4.359375 -71.578125 L 22.75 -71.09375 C 23.695312 -71.03125 24.40625 -70.726562 24.875 -70.1875 C 25.351562 -69.65625 25.65625 -68.695312 25.78125 -67.3125 C 27.488281 -63.195312 29.304688 -58.894531 31.234375 -54.40625 C 33.160156 -49.925781 35.070312 -45.488281 36.96875 -41.09375 C 38.863281 -36.695312 40.632812 -32.554688 42.28125 -28.671875 C 43.925781 -24.785156 45.316406 -21.359375 46.453125 -18.390625 C 47.898438 -21.992188 49.476562 -26.003906 51.1875 -30.421875 C 52.894531 -34.847656 54.617188 -39.320312 56.359375 -43.84375 C 58.097656 -48.363281 59.722656 -52.628906 61.234375 -56.640625 C 62.753906 -60.648438 64.019531 -64.046875 65.03125 -66.828125 C 65.53125 -68.160156 65.96875 -69.1875 66.34375 -69.90625 C 66.726562 -70.632812 67.554688 -71.03125 68.828125 -71.09375 L 86.640625 -71.578125 L 86.734375 -71.578125 C 87.304688 -71.578125 87.71875 -71.335938 87.96875 -70.859375 C 88.21875 -70.390625 88.34375 -69.867188 88.34375 -69.296875 C 88.34375 -68.859375 88.25 -68.398438 88.0625 -67.921875 C 87.875 -67.453125 87.59375 -67.085938 87.21875 -66.828125 C 84.875 -66.703125 83.164062 -66.476562 82.09375 -66.15625 C 81.019531 -65.84375 80.335938 -65.414062 80.046875 -64.875 C 79.765625 -64.34375 79.5625 -63.664062 79.4375 -62.84375 C 79.375 -62.09375 79.328125 -61.003906 79.296875 -59.578125 C 79.265625 -58.160156 79.25 -56.628906 79.25 -54.984375 C 79.25 -53.335938 79.25 -51.820312 79.25 -50.4375 L 79.25 -22.9375 C 79.25 -18.582031 79.3125 -15.171875 79.4375 -12.703125 C 79.5625 -10.234375 79.859375 -8.429688 80.328125 -7.296875 C 80.804688 -6.160156 81.613281 -5.445312 82.75 -5.15625 C 83.894531 -4.875 85.445312 -4.734375 87.40625 -4.734375 C 87.78125 -4.484375 88.0625 -4.132812 88.25 -3.6875 C 88.445312 -3.25 88.546875 -2.78125 88.546875 -2.28125 C 88.546875 -1.707031 88.414062 -1.210938 88.15625 -0.796875 C 87.90625 -0.390625 87.492188 -0.1875 86.921875 -0.1875 Z M 86.921875 -0.1875 "/></g></g></g><g fill="#576066" fill-opacity="1"><g transform="translate(186.479714, 213.555981)"><g><path d="M 32.046875 -0.1875 L 4.078125 -0.1875 C 3.503906 -0.1875 3.078125 -0.40625 2.796875 -0.84375 C 2.515625 -1.289062 2.375 -1.769531 2.375 -2.28125 C 2.375 -2.78125 2.484375 -3.28125 2.703125 -3.78125 C 2.921875 -4.289062 3.222656 -4.640625 3.609375 -4.828125 C 6.953125 -4.960938 9.113281 -5.34375 10.09375 -5.96875 C 11.070312 -6.601562 11.6875 -7.675781 11.9375 -9.1875 C 12.132812 -10.457031 12.265625 -12.703125 12.328125 -15.921875 C 12.390625 -19.148438 12.421875 -22.972656 12.421875 -27.390625 L 12.421875 -46.359375 C 12.421875 -50.847656 12.390625 -54.414062 12.328125 -57.0625 C 12.265625 -59.71875 12.132812 -61.675781 11.9375 -62.9375 C 11.8125 -64.144531 11.242188 -65.078125 10.234375 -65.734375 C 9.222656 -66.398438 6.976562 -66.765625 3.5 -66.828125 C 2.75 -67.273438 2.375 -68.066406 2.375 -69.203125 C 2.375 -69.773438 2.515625 -70.28125 2.796875 -70.71875 C 3.078125 -71.15625 3.503906 -71.375 4.078125 -71.375 L 32.046875 -71.375 C 32.609375 -71.375 33.03125 -71.15625 33.3125 -70.71875 C 33.601562 -70.28125 33.75 -69.804688 33.75 -69.296875 C 33.75 -68.097656 33.335938 -67.273438 32.515625 -66.828125 C 29.359375 -66.765625 27.238281 -66.398438 26.15625 -65.734375 C 25.082031 -65.078125 24.421875 -64.019531 24.171875 -62.5625 C 24.046875 -61.488281 23.9375 -60.035156 23.84375 -58.203125 C 23.75 -56.367188 23.703125 -54.394531 23.703125 -52.28125 C 23.703125 -50.164062 23.703125 -48.191406 23.703125 -46.359375 L 23.703125 -23.03125 C 23.703125 -19.175781 23.71875 -16.109375 23.75 -13.828125 C 23.78125 -11.554688 23.921875 -9.914062 24.171875 -8.90625 C 24.484375 -7.519531 25.222656 -6.523438 26.390625 -5.921875 C 27.566406 -5.328125 29.609375 -4.960938 32.515625 -4.828125 C 32.890625 -4.640625 33.171875 -4.304688 33.359375 -3.828125 C 33.554688 -3.359375 33.65625 -2.875 33.65625 -2.375 C 33.65625 -1.800781 33.523438 -1.289062 33.265625 -0.84375 C 33.015625 -0.40625 32.609375 -0.1875 32.046875 -0.1875 Z M 32.046875 -0.1875 "/></g></g></g><g fill="#c1ff72" fill-opacity="1"><g transform="translate(233.414712, 213.555981)"><g><path d="M 69.671875 -0.1875 L 44.078125 -0.1875 C 43.441406 -0.1875 43 -0.40625 42.75 -0.84375 C 42.5 -1.289062 42.375 -1.769531 42.375 -2.28125 C 42.375 -2.78125 42.46875 -3.25 42.65625 -3.6875 C 42.84375 -4.132812 43.097656 -4.453125 43.421875 -4.640625 C 44.929688 -4.765625 46.144531 -4.921875 47.0625 -5.109375 C 47.976562 -5.304688 48.4375 -5.71875 48.4375 -6.34375 C 48.4375 -6.976562 47.898438 -8.023438 46.828125 -9.484375 C 43.546875 -13.960938 40.382812 -18.316406 37.34375 -22.546875 C 34.3125 -26.785156 30.867188 -31.023438 27.015625 -35.265625 C 26.578125 -34.890625 25.882812 -34.257812 24.9375 -33.375 C 23.988281 -32.488281 23.320312 -31.820312 22.9375 -31.375 L 22.9375 -23.03125 C 22.9375 -19.175781 22.984375 -16.109375 23.078125 -13.828125 C 23.171875 -11.554688 23.285156 -9.882812 23.421875 -8.8125 C 23.609375 -7.425781 24.175781 -6.445312 25.125 -5.875 C 26.070312 -5.3125 27.90625 -4.960938 30.625 -4.828125 C 31.445312 -4.453125 31.859375 -3.664062 31.859375 -2.46875 C 31.859375 -1.894531 31.710938 -1.367188 31.421875 -0.890625 C 31.140625 -0.421875 30.710938 -0.1875 30.140625 -0.1875 L 4.734375 -0.1875 C 4.171875 -0.1875 3.742188 -0.390625 3.453125 -0.796875 C 3.171875 -1.210938 3.03125 -1.707031 3.03125 -2.28125 C 3.03125 -3.476562 3.441406 -4.328125 4.265625 -4.828125 C 6.097656 -5.085938 7.691406 -5.359375 9.046875 -5.640625 C 10.410156 -5.921875 11.25 -7.007812 11.5625 -8.90625 C 11.8125 -10.175781 11.953125 -12.640625 11.984375 -16.296875 C 12.023438 -19.960938 12.046875 -24.007812 12.046875 -28.4375 L 12.046875 -46.265625 C 12.046875 -50.742188 12.007812 -54.375 11.9375 -57.15625 C 11.875 -59.9375 11.75 -61.960938 11.5625 -63.234375 C 11.5 -64.054688 11.289062 -64.734375 10.9375 -65.265625 C 10.59375 -65.804688 9.914062 -66.21875 8.90625 -66.5 C 7.894531 -66.78125 6.285156 -66.953125 4.078125 -67.015625 C 3.628906 -67.210938 3.3125 -67.546875 3.125 -68.015625 C 2.9375 -68.492188 2.84375 -68.953125 2.84375 -69.390625 C 2.84375 -69.898438 2.96875 -70.375 3.21875 -70.8125 C 3.476562 -71.257812 3.890625 -71.484375 4.453125 -71.484375 L 30.140625 -71.484375 C 30.710938 -71.484375 31.140625 -71.273438 31.421875 -70.859375 C 31.710938 -70.453125 31.859375 -69.992188 31.859375 -69.484375 C 31.859375 -68.472656 31.445312 -67.648438 30.625 -67.015625 C 28.726562 -66.953125 27.238281 -66.8125 26.15625 -66.59375 C 25.082031 -66.375 24.320312 -65.726562 23.875 -64.65625 C 23.4375 -63.582031 23.171875 -61.828125 23.078125 -59.390625 C 22.984375 -56.953125 22.9375 -53.492188 22.9375 -49.015625 L 22.9375 -38.109375 C 24.269531 -39.367188 25.867188 -40.898438 27.734375 -42.703125 C 29.597656 -44.503906 31.554688 -46.429688 33.609375 -48.484375 C 35.660156 -50.535156 37.632812 -52.507812 39.53125 -54.40625 C 41.425781 -56.300781 43.082031 -57.992188 44.5 -59.484375 C 45.925781 -60.972656 46.957031 -62.03125 47.59375 -62.65625 C 48.476562 -63.664062 48.921875 -64.394531 48.921875 -64.84375 C 48.921875 -65.601562 48.238281 -66.15625 46.875 -66.5 C 45.519531 -66.84375 44.175781 -67.046875 42.84375 -67.109375 C 42.46875 -67.304688 42.203125 -67.609375 42.046875 -68.015625 C 41.890625 -68.429688 41.8125 -68.859375 41.8125 -69.296875 C 41.8125 -69.867188 41.9375 -70.375 42.1875 -70.8125 C 42.4375 -71.257812 42.847656 -71.484375 43.421875 -71.484375 L 65.125 -71.484375 C 65.632812 -71.484375 66.015625 -71.242188 66.265625 -70.765625 C 66.515625 -70.296875 66.640625 -69.773438 66.640625 -69.203125 C 66.640625 -68.753906 66.5625 -68.3125 66.40625 -67.875 C 66.25 -67.4375 65.976562 -67.148438 65.59375 -67.015625 C 62.875 -66.703125 60.660156 -66.101562 58.953125 -65.21875 C 57.253906 -64.332031 55.488281 -62.972656 53.65625 -61.140625 C 52.707031 -60.253906 51.222656 -58.832031 49.203125 -56.875 C 47.179688 -54.914062 44.921875 -52.703125 42.421875 -50.234375 C 39.921875 -47.773438 37.441406 -45.28125 34.984375 -42.75 C 36.554688 -40.976562 38.335938 -38.84375 40.328125 -36.34375 C 42.328125 -33.851562 44.398438 -31.203125 46.546875 -28.390625 C 48.691406 -25.578125 50.851562 -22.75 53.03125 -19.90625 C 55.21875 -17.0625 57.289062 -14.40625 59.25 -11.9375 C 61.269531 -9.414062 63.019531 -7.664062 64.5 -6.6875 C 65.988281 -5.707031 67.96875 -5.117188 70.4375 -4.921875 C 71.132812 -4.359375 71.484375 -3.539062 71.484375 -2.46875 C 71.484375 -1.894531 71.335938 -1.367188 71.046875 -0.890625 C 70.765625 -0.421875 70.304688 -0.1875 69.671875 -0.1875 Z M 69.671875 -0.1875 "/></g></g></g><g fill="#576066" fill-opacity="1"><g transform="translate(83.904495, 291.454171)"><g><path d="M 21.203125 -37.4375 L 20.53125 -37.890625 C 20.9375 -38.835938 21.367188 -40.015625 21.828125 -41.421875 C 22.285156 -42.835938 22.738281 -44.28125 23.1875 -45.75 L 29.953125 -43 C 29.804688 -42.75 29.554688 -42.519531 29.203125 -42.3125 C 28.859375 -42.113281 28.394531 -42.03125 27.8125 -42.0625 C 26.78125 -41.1875 25.6875 -40.332031 24.53125 -39.5 C 23.375 -38.675781 22.265625 -37.988281 21.203125 -37.4375 Z M 4.234375 -45.046875 L 4.796875 -45.375 C 7.066406 -44.894531 8.753906 -44.238281 9.859375 -43.40625 C 10.960938 -42.582031 11.613281 -41.726562 11.8125 -40.84375 C 12.007812 -39.96875 11.890625 -39.207031 11.453125 -38.5625 C 11.015625 -37.925781 10.390625 -37.535156 9.578125 -37.390625 C 8.773438 -37.242188 7.953125 -37.519531 7.109375 -38.21875 C 7.035156 -39.382812 6.691406 -40.601562 6.078125 -41.875 C 5.472656 -43.144531 4.859375 -44.203125 4.234375 -45.046875 Z M 8.75 -34.578125 L 8.75 -18.890625 C 8.75 -18.742188 8.410156 -18.46875 7.734375 -18.0625 C 7.054688 -17.65625 6.128906 -17.453125 4.953125 -17.453125 L 4.125 -17.453125 L 4.125 -38.328125 L 9.46875 -36.125 L 13.546875 -36.125 L 13.546875 -46.640625 L 20.703125 -45.921875 C 20.671875 -45.554688 20.523438 -45.253906 20.265625 -45.015625 C 20.003906 -44.773438 19.546875 -44.617188 18.890625 -44.546875 L 18.890625 -36.125 L 22.96875 -36.125 L 25.28125 -38.875 L 30.71875 -34.796875 C 30.570312 -34.617188 30.285156 -34.414062 29.859375 -34.1875 C 29.441406 -33.96875 28.941406 -33.804688 28.359375 -33.703125 L 28.359375 -23.40625 C 28.359375 -22.375 28.238281 -21.484375 28 -20.734375 C 27.757812 -19.984375 27.234375 -19.382812 26.421875 -18.9375 C 25.617188 -18.5 24.351562 -18.207031 22.625 -18.0625 C 22.59375 -18.6875 22.539062 -19.253906 22.46875 -19.765625 C 22.394531 -20.273438 22.226562 -20.660156 21.96875 -20.921875 C 21.707031 -21.210938 21.382812 -21.476562 21 -21.71875 C 20.613281 -21.957031 20.019531 -22.148438 19.21875 -22.296875 L 19.21875 -23.125 C 19.21875 -23.125 19.445312 -23.101562 19.90625 -23.0625 C 20.363281 -23.03125 20.867188 -22.992188 21.421875 -22.953125 C 21.972656 -22.921875 22.394531 -22.90625 22.6875 -22.90625 C 23.238281 -22.90625 23.515625 -23.195312 23.515625 -23.78125 L 23.515625 -26.59375 C 23.179688 -26.082031 22.710938 -25.789062 22.109375 -25.71875 C 21.503906 -25.644531 20.90625 -25.898438 20.3125 -26.484375 C 20.3125 -27.515625 20.164062 -28.613281 19.875 -29.78125 C 19.582031 -30.957031 19.234375 -31.953125 18.828125 -32.765625 L 19.484375 -32.984375 C 20.628906 -32.390625 21.519531 -31.78125 22.15625 -31.15625 C 22.800781 -30.539062 23.253906 -29.9375 23.515625 -29.34375 L 23.515625 -34.578125 L 18.28125 -34.578125 L 18.28125 -19.65625 C 18.238281 -19.507812 17.878906 -19.257812 17.203125 -18.90625 C 16.523438 -18.5625 15.707031 -18.390625 14.75 -18.390625 L 14.15625 -18.390625 L 14.15625 -30.453125 L 13.828125 -30.453125 C 13.378906 -29.203125 12.832031 -28.003906 12.1875 -26.859375 C 11.550781 -25.722656 10.8125 -24.753906 9.96875 -23.953125 L 9.03125 -24.390625 C 9.507812 -25.566406 9.894531 -26.90625 10.1875 -28.40625 C 10.476562 -29.914062 10.660156 -31.421875 10.734375 -32.921875 L 14.15625 -32.046875 L 14.15625 -34.578125 Z M 43.71875 -10.734375 L 47.015625 -14.859375 C 47.015625 -14.859375 47.363281 -14.59375 48.0625 -14.0625 C 48.757812 -13.53125 49.585938 -12.894531 50.546875 -12.15625 C 51.503906 -11.425781 52.367188 -10.734375 53.140625 -10.078125 C 52.992188 -9.492188 52.476562 -9.203125 51.59375 -9.203125 L 38.484375 -9.203125 L 38.484375 3.25 C 38.484375 3.394531 38.21875 3.59375 37.6875 3.84375 C 37.15625 4.101562 36.492188 4.328125 35.703125 4.515625 C 34.921875 4.703125 34.125 4.796875 33.3125 4.796875 L 32.21875 4.796875 L 32.21875 -9.203125 L 22.296875 -9.203125 C 22.117188 -7.765625 21.6875 -6.347656 21 -4.953125 C 20.320312 -3.554688 19.257812 -2.234375 17.8125 -0.984375 C 16.363281 0.253906 14.390625 1.378906 11.890625 2.390625 C 9.398438 3.398438 6.242188 4.238281 2.421875 4.90625 L 2.140625 4.234375 C 5.703125 3.097656 8.460938 1.8125 10.421875 0.375 C 12.390625 -1.050781 13.796875 -2.578125 14.640625 -4.203125 C 15.484375 -5.835938 15.984375 -7.503906 16.140625 -9.203125 L 2.484375 -9.203125 L 2.03125 -10.734375 L 16.25 -10.734375 L 16.25 -17.234375 L 24.234375 -16.46875 C 24.191406 -16.132812 24.039062 -15.835938 23.78125 -15.578125 C 23.53125 -15.328125 23.09375 -15.164062 22.46875 -15.09375 L 22.46875 -10.734375 L 32.21875 -10.734375 L 32.21875 -17.296875 L 40.53125 -16.515625 C 40.488281 -16.148438 40.328125 -15.835938 40.046875 -15.578125 C 39.773438 -15.328125 39.253906 -15.144531 38.484375 -15.03125 L 38.484375 -10.734375 Z M 42.625 -37.0625 L 36.890625 -37.0625 C 36.671875 -36.6875 36.441406 -36.332031 36.203125 -36 C 35.960938 -35.675781 35.710938 -35.347656 35.453125 -35.015625 C 36.484375 -32.742188 37.914062 -30.742188 39.75 -29.015625 C 40.445312 -30.222656 41.035156 -31.5 41.515625 -32.84375 C 41.992188 -34.1875 42.363281 -35.59375 42.625 -37.0625 Z M 51.53125 -37.0625 L 48.953125 -37.0625 C 47.960938 -32.832031 46.085938 -29.25 43.328125 -26.3125 C 44.722656 -25.507812 46.242188 -24.804688 47.890625 -24.203125 C 49.546875 -23.597656 51.382812 -23.09375 53.40625 -22.6875 L 53.359375 -22.140625 C 51.078125 -21.179688 49.773438 -19.304688 49.453125 -16.515625 C 47.359375 -17.328125 45.53125 -18.300781 43.96875 -19.4375 C 42.40625 -20.570312 41.035156 -21.859375 39.859375 -23.296875 C 36.628906 -20.941406 32.554688 -19.101562 27.640625 -17.78125 L 27.3125 -18.5 C 29.625 -19.5625 31.640625 -20.742188 33.359375 -22.046875 C 35.085938 -23.347656 36.578125 -24.753906 37.828125 -26.265625 C 37.171875 -27.441406 36.570312 -28.679688 36.03125 -29.984375 C 35.5 -31.285156 35.035156 -32.632812 34.640625 -34.03125 C 33.171875 -32.34375 31.515625 -30.910156 29.671875 -29.734375 L 28.96875 -30.171875 C 30.320312 -32.222656 31.484375 -34.695312 32.453125 -37.59375 C 33.429688 -40.5 34.101562 -43.566406 34.46875 -46.796875 L 42.171875 -44.765625 C 41.921875 -43.953125 41.222656 -43.546875 40.078125 -43.546875 C 39.753906 -42.628906 39.398438 -41.757812 39.015625 -40.9375 C 38.628906 -40.113281 38.234375 -39.332031 37.828125 -38.59375 L 44.265625 -38.59375 L 47.40625 -42.734375 C 47.40625 -42.734375 47.726562 -42.472656 48.375 -41.953125 C 49.019531 -41.441406 49.78125 -40.804688 50.65625 -40.046875 C 51.539062 -39.296875 52.332031 -38.59375 53.03125 -37.9375 C 52.882812 -37.351562 52.382812 -37.0625 51.53125 -37.0625 Z M 51.53125 -37.0625 "/></g></g></g><g fill="#576066" fill-opacity="1"><g transform="translate(158.939514, 291.454171)"><g><path d="M 20.046875 -38.984375 L 25.109375 -33.53125 C 24.847656 -33.269531 24.535156 -33.09375 24.171875 -33 C 23.804688 -32.914062 23.289062 -32.835938 22.625 -32.765625 C 21.195312 -29.828125 19.234375 -26.945312 16.734375 -24.125 C 19.117188 -23.53125 20.914062 -22.773438 22.125 -21.859375 C 23.34375 -20.941406 24.097656 -19.992188 24.390625 -19.015625 C 24.679688 -18.046875 24.644531 -17.191406 24.28125 -16.453125 C 23.914062 -15.722656 23.335938 -15.253906 22.546875 -15.046875 C 21.753906 -14.847656 20.882812 -15.0625 19.9375 -15.6875 C 19.632812 -16.789062 19.144531 -17.929688 18.46875 -19.109375 C 17.789062 -20.285156 17.050781 -21.367188 16.25 -22.359375 L 16.25 2.921875 C 16.25 3.097656 15.769531 3.460938 14.8125 4.015625 C 13.851562 4.566406 12.601562 4.84375 11.0625 4.84375 L 9.859375 4.84375 L 9.859375 -17.734375 C 8.535156 -16.703125 7.15625 -15.753906 5.71875 -14.890625 C 4.289062 -14.023438 2.828125 -13.242188 1.328125 -12.546875 L 0.828125 -13.046875 C 3.140625 -14.953125 5.296875 -17.082031 7.296875 -19.4375 C 9.296875 -21.789062 11.054688 -24.234375 12.578125 -26.765625 C 14.097656 -29.296875 15.265625 -31.753906 16.078125 -34.140625 L 2.703125 -34.140625 L 2.203125 -35.625 L 9.90625 -35.625 L 9.90625 -46.359375 L 18 -45.703125 C 17.96875 -45.335938 17.800781 -45.015625 17.5 -44.734375 C 17.207031 -44.460938 16.695312 -44.269531 15.96875 -44.15625 L 15.96875 -35.625 L 16.515625 -35.625 Z M 44.15625 0.984375 L 47.625 -3.796875 C 47.625 -3.796875 47.832031 -3.613281 48.25 -3.25 C 48.675781 -2.882812 49.21875 -2.425781 49.875 -1.875 C 50.539062 -1.320312 51.234375 -0.722656 51.953125 -0.078125 C 52.671875 0.554688 53.320312 1.148438 53.90625 1.703125 C 53.757812 2.296875 53.242188 2.59375 52.359375 2.59375 L 19.484375 2.59375 L 19.046875 0.984375 L 32.984375 0.984375 L 32.984375 -25.390625 L 23.40625 -25.390625 L 22.96875 -26.921875 L 32.984375 -26.921875 L 32.984375 -46.3125 L 41.6875 -45.421875 C 41.644531 -45.023438 41.484375 -44.6875 41.203125 -44.40625 C 40.929688 -44.132812 40.429688 -43.960938 39.703125 -43.890625 L 39.703125 -26.921875 L 43.28125 -26.921875 L 46.640625 -31.609375 C 46.640625 -31.609375 46.988281 -31.3125 47.6875 -30.71875 C 48.382812 -30.132812 49.207031 -29.425781 50.15625 -28.59375 C 51.113281 -27.769531 51.957031 -26.992188 52.6875 -26.265625 C 52.582031 -25.679688 52.070312 -25.390625 51.15625 -25.390625 L 39.703125 -25.390625 L 39.703125 0.984375 Z M 44.15625 0.984375 "/></g></g></g><g fill="#576066" fill-opacity="1"><g transform="translate(233.974532, 291.454171)"><g><path d="M 25.5 -31.765625 C 25.5 -32.679688 25.332031 -33.546875 25 -34.359375 C 24.664062 -35.171875 24.257812 -35.882812 23.78125 -36.5 C 21.988281 -36.03125 20.253906 -35.289062 18.578125 -34.28125 C 16.910156 -33.269531 15.414062 -32.066406 14.09375 -30.671875 C 12.519531 -28.910156 11.300781 -27.070312 10.4375 -25.15625 C 9.570312 -23.25 9.140625 -21.160156 9.140625 -18.890625 C 9.140625 -17.453125 9.320312 -16.09375 9.6875 -14.8125 C 10.050781 -13.53125 10.554688 -12.484375 11.203125 -11.671875 C 11.847656 -10.867188 12.554688 -10.46875 13.328125 -10.46875 C 14.097656 -10.46875 14.953125 -10.867188 15.890625 -11.671875 C 16.828125 -12.484375 17.753906 -13.503906 18.671875 -14.734375 C 19.585938 -15.960938 20.429688 -17.21875 21.203125 -18.5 C 21.972656 -19.78125 22.578125 -20.898438 23.015625 -21.859375 C 23.753906 -23.472656 24.351562 -25.160156 24.8125 -26.921875 C 25.269531 -28.679688 25.5 -30.296875 25.5 -31.765625 Z M 24.9375 0.984375 L 24.71875 -0.0625 C 29.382812 -1.15625 33.109375 -2.703125 35.890625 -4.703125 C 38.679688 -6.703125 40.710938 -9.050781 41.984375 -11.75 C 43.253906 -14.445312 43.890625 -17.375 43.890625 -20.53125 C 43.890625 -23.914062 43.226562 -26.851562 41.90625 -29.34375 C 40.582031 -31.84375 38.753906 -33.769531 36.421875 -35.125 C 34.085938 -36.488281 31.4375 -37.171875 28.46875 -37.171875 C 27.726562 -37.171875 26.992188 -37.113281 26.265625 -37 C 27.109375 -36.15625 27.925781 -35.097656 28.71875 -33.828125 C 29.507812 -32.566406 29.90625 -31.296875 29.90625 -30.015625 C 29.90625 -28.617188 29.753906 -27.054688 29.453125 -25.328125 C 29.160156 -23.597656 28.703125 -21.890625 28.078125 -20.203125 C 27.453125 -18.441406 26.613281 -16.578125 25.5625 -14.609375 C 24.519531 -12.648438 23.320312 -10.804688 21.96875 -9.078125 C 20.613281 -7.359375 19.15625 -5.945312 17.59375 -4.84375 C 16.03125 -3.738281 14.40625 -3.1875 12.71875 -3.1875 C 11.613281 -3.1875 10.554688 -3.570312 9.546875 -4.34375 C 8.546875 -5.113281 7.640625 -6.160156 6.828125 -7.484375 C 6.015625 -8.804688 5.378906 -10.289062 4.921875 -11.9375 C 4.460938 -13.59375 4.234375 -15.320312 4.234375 -17.125 C 4.234375 -18.851562 4.519531 -20.679688 5.09375 -22.609375 C 5.664062 -24.535156 6.554688 -26.441406 7.765625 -28.328125 C 8.972656 -30.222656 10.492188 -31.941406 12.328125 -33.484375 C 14.566406 -35.421875 17.082031 -36.882812 19.875 -37.875 C 22.664062 -38.875 25.734375 -39.375 29.078125 -39.375 C 32.234375 -39.375 35.128906 -38.859375 37.765625 -37.828125 C 40.410156 -36.796875 42.695312 -35.363281 44.625 -33.53125 C 46.550781 -31.695312 48.046875 -29.550781 49.109375 -27.09375 C 50.179688 -24.632812 50.71875 -21.972656 50.71875 -19.109375 C 50.71875 -16.503906 50.238281 -14.035156 49.28125 -11.703125 C 48.320312 -9.367188 46.816406 -7.285156 44.765625 -5.453125 C 42.710938 -3.617188 40.050781 -2.128906 36.78125 -0.984375 C 33.507812 0.148438 29.5625 0.804688 24.9375 0.984375 Z M 24.9375 0.984375 "/></g></g></g><g fill="#576066" fill-opacity="1"><g transform="translate(309.009562, 291.454171)"><g><path d="M 23.5625 -29.78125 L 21.140625 -36.5 C 22.023438 -36.5 23.109375 -36.5 24.390625 -36.5 C 25.671875 -36.5 27.101562 -36.5 28.6875 -36.5 C 29.09375 -38.113281 29.476562 -39.859375 29.84375 -41.734375 C 30.207031 -43.609375 30.484375 -45.28125 30.671875 -46.75 L 39.75 -44.59375 C 39.644531 -44.269531 39.4375 -43.992188 39.125 -43.765625 C 38.8125 -43.546875 38.34375 -43.457031 37.71875 -43.5 C 36.945312 -42.46875 36 -41.335938 34.875 -40.109375 C 33.757812 -38.878906 32.578125 -37.695312 31.328125 -36.5625 C 33.273438 -36.5625 35.335938 -36.585938 37.515625 -36.640625 C 39.703125 -36.703125 41.972656 -36.75 44.328125 -36.78125 C 43.035156 -38.582031 41.660156 -40.109375 40.203125 -41.359375 L 40.640625 -41.734375 C 43.429688 -41.328125 45.660156 -40.679688 47.328125 -39.796875 C 48.992188 -38.921875 50.222656 -37.953125 51.015625 -36.890625 C 51.804688 -35.828125 52.238281 -34.800781 52.3125 -33.8125 C 52.382812 -32.820312 52.191406 -31.976562 51.734375 -31.28125 C 51.273438 -30.582031 50.640625 -30.148438 49.828125 -29.984375 C 49.023438 -29.816406 48.128906 -30.0625 47.140625 -30.71875 C 46.804688 -32.1875 46.179688 -33.726562 45.265625 -35.34375 C 42.835938 -34.757812 39.976562 -34.109375 36.6875 -33.390625 C 33.40625 -32.679688 29.5625 -31.882812 25.15625 -31 C 24.789062 -30.300781 24.257812 -29.894531 23.5625 -29.78125 Z M 16.90625 -23.125 L 22.40625 -18.5625 C 22.1875 -18.332031 21.898438 -18.132812 21.546875 -17.96875 C 21.203125 -17.8125 20.738281 -17.695312 20.15625 -17.625 C 19.863281 -11.53125 19.359375 -6.863281 18.640625 -3.625 C 17.921875 -0.394531 16.863281 1.765625 15.46875 2.859375 C 14.59375 3.554688 13.613281 4.070312 12.53125 4.40625 C 11.445312 4.738281 10.148438 4.90625 8.640625 4.90625 C 8.640625 4.019531 8.578125 3.226562 8.453125 2.53125 C 8.328125 1.832031 8.0625 1.28125 7.65625 0.875 C 7.25 0.4375 6.613281 0.0546875 5.75 -0.265625 C 4.882812 -0.597656 3.921875 -0.894531 2.859375 -1.15625 L 2.921875 -1.875 C 3.617188 -1.832031 4.40625 -1.773438 5.28125 -1.703125 C 6.164062 -1.628906 6.992188 -1.570312 7.765625 -1.53125 C 8.535156 -1.5 9.101562 -1.484375 9.46875 -1.484375 C 10.28125 -1.484375 10.921875 -1.648438 11.390625 -1.984375 C 12.128906 -2.609375 12.738281 -4.3125 13.21875 -7.09375 C 13.695312 -9.882812 14.0625 -13.707031 14.3125 -18.5625 L 8.75 -18.5625 C 8.71875 -18.039062 8.671875 -17.53125 8.609375 -17.03125 C 8.554688 -16.539062 8.492188 -16.078125 8.421875 -15.640625 C 7.722656 -15.234375 6.941406 -14.972656 6.078125 -14.859375 C 5.222656 -14.753906 3.988281 -14.832031 2.375 -15.09375 C 2.664062 -17.070312 2.945312 -19.222656 3.21875 -21.546875 C 3.5 -23.878906 3.738281 -26.144531 3.9375 -28.34375 C 4.132812 -30.550781 4.289062 -32.410156 4.40625 -33.921875 L 10.796875 -31.546875 L 13.875 -31.546875 L 13.875 -41.625 L 2.484375 -41.625 L 1.984375 -43.21875 L 13.328125 -43.21875 L 16.140625 -46.3125 L 21.96875 -41.796875 C 21.820312 -41.578125 21.554688 -41.351562 21.171875 -41.125 C 20.785156 -40.90625 20.316406 -40.742188 19.765625 -40.640625 L 19.765625 -28.75 C 19.765625 -28.632812 19.488281 -28.46875 18.9375 -28.25 C 18.382812 -28.03125 17.734375 -27.816406 16.984375 -27.609375 C 16.234375 -27.410156 15.523438 -27.3125 14.859375 -27.3125 L 13.875 -27.3125 L 13.875 -29.953125 L 9.75 -29.953125 C 9.632812 -28.671875 9.515625 -27.144531 9.390625 -25.375 C 9.265625 -23.613281 9.109375 -21.875 8.921875 -20.15625 L 13.828125 -20.15625 Z M 28.6875 -14.8125 L 33.421875 -14.8125 L 33.421875 -23.953125 L 28.6875 -23.953125 Z M 44.4375 -23.953125 L 39.203125 -23.953125 L 39.203125 -14.8125 L 44.4375 -14.8125 Z M 42.171875 -9.46875 L 42.734375 -9.796875 C 45.367188 -8.773438 47.46875 -7.628906 49.03125 -6.359375 C 50.59375 -5.085938 51.703125 -3.828125 52.359375 -2.578125 C 53.023438 -1.335938 53.335938 -0.1875 53.296875 0.875 C 53.265625 1.945312 52.984375 2.8125 52.453125 3.46875 C 51.921875 4.125 51.226562 4.476562 50.375 4.53125 C 49.53125 4.59375 48.632812 4.238281 47.6875 3.46875 C 47.539062 2.507812 47.316406 1.546875 47.015625 0.578125 C 46.722656 -0.390625 46.378906 -1.351562 45.984375 -2.3125 C 43.441406 -1.582031 40.410156 -0.757812 36.890625 0.15625 C 33.367188 1.082031 29.222656 2.128906 24.453125 3.296875 C 24.304688 3.671875 24.082031 3.945312 23.78125 4.125 C 23.488281 4.3125 23.195312 4.441406 22.90625 4.515625 L 19.609375 -2.484375 C 21.078125 -2.515625 22.992188 -2.582031 25.359375 -2.6875 C 27.722656 -2.800781 30.410156 -2.929688 33.421875 -3.078125 L 33.421875 -13.265625 L 28.6875 -13.265625 L 28.6875 -10.90625 C 28.6875 -10.757812 28.457031 -10.554688 28 -10.296875 C 27.539062 -10.035156 26.953125 -9.796875 26.234375 -9.578125 C 25.515625 -9.359375 24.769531 -9.25 24 -9.25 L 23.234375 -9.25 L 23.234375 -27.859375 L 29.015625 -25.546875 L 33.421875 -25.546875 L 33.421875 -32.15625 L 40.96875 -31.4375 C 40.925781 -31.070312 40.773438 -30.769531 40.515625 -30.53125 C 40.265625 -30.289062 39.828125 -30.132812 39.203125 -30.0625 L 39.203125 -25.546875 L 43.9375 -25.546875 L 46.578125 -28.359375 L 52.140625 -24.171875 C 51.992188 -24.023438 51.753906 -23.847656 51.421875 -23.640625 C 51.097656 -23.441406 50.675781 -23.289062 50.15625 -23.1875 L 50.15625 -11.890625 C 50.15625 -11.785156 49.878906 -11.617188 49.328125 -11.390625 C 48.785156 -11.171875 48.15625 -10.96875 47.4375 -10.78125 C 46.71875 -10.601562 46.046875 -10.515625 45.421875 -10.515625 L 44.4375 -10.515625 L 44.4375 -13.265625 L 39.203125 -13.265625 L 39.203125 -3.46875 L 45.3125 -3.859375 C 44.832031 -4.878906 44.316406 -5.867188 43.765625 -6.828125 C 43.222656 -7.785156 42.691406 -8.664062 42.171875 -9.46875 Z M 42.171875 -9.46875 "/></g></g></g><g fill="#576066" fill-opacity="1"><g transform="translate(384.044569, 291.454171)"><g><path d="M 11.671875 -9.96875 C 12.109375 -10.625 12.640625 -11.457031 13.265625 -12.46875 C 13.890625 -13.476562 14.539062 -14.550781 15.21875 -15.6875 C 15.90625 -16.832031 16.503906 -17.863281 17.015625 -18.78125 C 15.210938 -18.476562 13.53125 -17.976562 11.96875 -17.28125 C 10.414062 -16.59375 9.140625 -15.769531 8.140625 -14.8125 C 7.148438 -13.851562 6.546875 -12.863281 6.328125 -11.84375 C 6.222656 -11.21875 6.257812 -10.570312 6.4375 -9.90625 C 6.625 -9.25 6.910156 -8.695312 7.296875 -8.25 C 7.679688 -7.8125 8.078125 -7.59375 8.484375 -7.59375 C 9.109375 -7.59375 9.648438 -7.765625 10.109375 -8.109375 C 10.566406 -8.460938 11.085938 -9.082031 11.671875 -9.96875 Z M 37.546875 -25.9375 L 37.546875 -26.703125 C 38.066406 -27.035156 38.65625 -27.328125 39.3125 -27.578125 C 39.976562 -27.835938 40.640625 -27.953125 41.296875 -27.921875 C 42.179688 -27.878906 43.050781 -27.628906 43.90625 -27.171875 C 44.769531 -26.710938 45.484375 -26.179688 46.046875 -25.578125 C 46.617188 -24.972656 46.90625 -24.394531 46.90625 -23.84375 C 46.90625 -23.363281 46.847656 -22.820312 46.734375 -22.21875 C 46.628906 -21.613281 46.539062 -21.035156 46.46875 -20.484375 C 46.363281 -19.972656 46.234375 -19.320312 46.078125 -18.53125 C 45.929688 -17.738281 45.75 -16.882812 45.53125 -15.96875 C 47.550781 -14.71875 49.128906 -13.578125 50.265625 -12.546875 C 50.929688 -11.929688 51.472656 -11.265625 51.890625 -10.546875 C 52.316406 -9.828125 52.507812 -8.898438 52.46875 -7.765625 C 52.4375 -7.066406 52.207031 -6.414062 51.78125 -5.8125 C 51.363281 -5.207031 50.640625 -4.90625 49.609375 -4.90625 C 48.660156 -4.90625 47.722656 -5.34375 46.796875 -6.21875 C 45.878906 -7.101562 44.722656 -8.1875 43.328125 -9.46875 C 41.460938 -5.800781 38.644531 -2.875 34.875 -0.6875 C 31.113281 1.5 26.570312 3.015625 21.25 3.859375 L 20.765625 2.859375 C 25.460938 1.171875 29.269531 -1.035156 32.1875 -3.765625 C 35.101562 -6.503906 37.273438 -9.65625 38.703125 -13.21875 C 37.566406 -14.09375 36.238281 -14.941406 34.71875 -15.765625 C 33.195312 -16.597656 31.40625 -17.304688 29.34375 -17.890625 C 27.289062 -18.484375 24.867188 -18.832031 22.078125 -18.9375 C 21.347656 -17.4375 20.578125 -15.800781 19.765625 -14.03125 C 18.960938 -12.269531 18.210938 -10.65625 17.515625 -9.1875 C 16.816406 -7.726562 16.242188 -6.6875 15.796875 -6.0625 C 14.703125 -4.375 13.617188 -3.144531 12.546875 -2.375 C 11.484375 -1.601562 10.203125 -1.21875 8.703125 -1.21875 C 7.640625 -1.21875 6.703125 -1.710938 5.890625 -2.703125 C 5.085938 -3.691406 4.484375 -4.9375 4.078125 -6.4375 C 3.671875 -7.945312 3.5625 -9.453125 3.75 -10.953125 C 3.925781 -12.421875 4.472656 -13.75 5.390625 -14.9375 C 6.304688 -16.132812 7.476562 -17.191406 8.90625 -18.109375 C 10.34375 -19.023438 11.90625 -19.785156 13.59375 -20.390625 C 15.289062 -21.003906 16.984375 -21.4375 18.671875 -21.6875 C 19.367188 -22.90625 20.144531 -24.238281 21 -25.6875 C 21.863281 -27.132812 22.707031 -28.554688 23.53125 -29.953125 C 24.363281 -31.347656 25.082031 -32.566406 25.6875 -33.609375 C 26.289062 -34.660156 26.703125 -35.40625 26.921875 -35.84375 C 27.210938 -36.394531 27.265625 -36.78125 27.078125 -37 C 26.898438 -37.21875 26.570312 -37.238281 26.09375 -37.0625 C 25.289062 -36.757812 24.347656 -36.316406 23.265625 -35.734375 C 22.179688 -35.148438 21.253906 -34.597656 20.484375 -34.078125 C 20.078125 -33.785156 19.613281 -33.445312 19.09375 -33.0625 C 18.582031 -32.675781 18.019531 -32.484375 17.40625 -32.484375 C 16.59375 -32.484375 15.765625 -32.785156 14.921875 -33.390625 C 14.078125 -33.992188 13.367188 -34.707031 12.796875 -35.53125 C 12.234375 -36.363281 11.914062 -37.109375 11.84375 -37.765625 C 11.800781 -38.285156 11.816406 -38.835938 11.890625 -39.421875 C 11.960938 -40.015625 12.035156 -40.546875 12.109375 -41.015625 L 12.890625 -41.1875 C 13.398438 -40.375 13.894531 -39.703125 14.375 -39.171875 C 14.851562 -38.640625 15.492188 -38.375 16.296875 -38.375 C 17.035156 -38.375 17.9375 -38.492188 19 -38.734375 C 20.0625 -38.972656 21.148438 -39.253906 22.265625 -39.578125 C 23.390625 -39.910156 24.351562 -40.207031 25.15625 -40.46875 C 26.226562 -40.875 27.03125 -41.273438 27.5625 -41.671875 C 28.09375 -42.078125 28.613281 -42.28125 29.125 -42.28125 C 29.644531 -42.28125 30.28125 -42.097656 31.03125 -41.734375 C 31.78125 -41.367188 32.519531 -40.910156 33.25 -40.359375 C 33.988281 -39.804688 34.601562 -39.21875 35.09375 -38.59375 C 35.59375 -37.96875 35.84375 -37.382812 35.84375 -36.84375 C 35.84375 -36.363281 35.625 -35.929688 35.1875 -35.546875 C 34.75 -35.160156 34.222656 -34.765625 33.609375 -34.359375 C 33.003906 -33.953125 32.410156 -33.457031 31.828125 -32.875 C 31.160156 -32.207031 30.34375 -31.269531 29.375 -30.0625 C 28.40625 -28.851562 27.421875 -27.539062 26.421875 -26.125 C 25.429688 -24.707031 24.550781 -23.359375 23.78125 -22.078125 C 27.238281 -22.003906 30.320312 -21.644531 33.03125 -21 C 35.75 -20.363281 38.175781 -19.601562 40.3125 -18.71875 C 40.457031 -19.5625 40.554688 -20.347656 40.609375 -21.078125 C 40.660156 -21.816406 40.6875 -22.445312 40.6875 -22.96875 C 40.65625 -23.476562 40.601562 -23.867188 40.53125 -24.140625 C 40.457031 -24.421875 40.234375 -24.6875 39.859375 -24.9375 C 39.390625 -25.3125 38.617188 -25.644531 37.546875 -25.9375 Z M 37.546875 -25.9375 "/></g></g></g><g fill="#576066" fill-opacity="1"><g transform="translate(83.904495, 91.758104)"><g><path d="M 3.25 -0.34375 L 2.765625 -12.6875 C 2.765625 -12.6875 2.765625 -12.703125 2.765625 -12.734375 C 2.765625 -12.992188 2.910156 -13.191406 3.203125 -13.328125 C 3.503906 -13.460938 3.816406 -13.53125 4.140625 -13.53125 C 4.410156 -13.53125 4.644531 -13.488281 4.84375 -13.40625 C 5.039062 -13.320312 5.15625 -13.179688 5.1875 -12.984375 C 5.539062 -10.910156 6.097656 -9.191406 6.859375 -7.828125 C 7.617188 -6.460938 8.457031 -5.382812 9.375 -4.59375 C 10.300781 -3.800781 11.195312 -3.210938 12.0625 -2.828125 C 12.9375 -2.453125 13.691406 -2.207031 14.328125 -2.09375 C 14.972656 -1.976562 15.394531 -1.921875 15.59375 -1.921875 C 17.832031 -1.921875 19.582031 -2.492188 20.84375 -3.640625 C 22.113281 -4.796875 22.75 -6.296875 22.75 -8.140625 C 22.75 -8.898438 22.566406 -9.734375 22.203125 -10.640625 C 21.847656 -11.546875 21.09375 -12.5 19.9375 -13.5 C 18.789062 -14.5 17.015625 -15.523438 14.609375 -16.578125 C 13.296875 -17.171875 11.988281 -17.8125 10.6875 -18.5 C 9.382812 -19.195312 8.207031 -20 7.15625 -20.90625 C 6.101562 -21.8125 5.265625 -22.847656 4.640625 -24.015625 C 4.015625 -25.179688 3.703125 -26.519531 3.703125 -28.03125 C 3.703125 -29.75 4.03125 -31.234375 4.6875 -32.484375 C 5.34375 -33.734375 6.210938 -34.757812 7.296875 -35.5625 C 8.390625 -36.363281 9.566406 -36.953125 10.828125 -37.328125 C 12.097656 -37.710938 13.34375 -37.90625 14.5625 -37.90625 C 15.90625 -37.90625 17.128906 -37.753906 18.234375 -37.453125 C 19.335938 -37.160156 20.234375 -36.847656 20.921875 -36.515625 C 21.617188 -36.191406 22.015625 -36 22.109375 -35.9375 C 22.210938 -35.863281 22.328125 -35.828125 22.453125 -35.828125 C 22.648438 -35.828125 22.953125 -36.007812 23.359375 -36.375 C 23.773438 -36.738281 24.019531 -36.953125 24.09375 -37.015625 C 24.414062 -37.378906 24.726562 -37.5625 25.03125 -37.5625 C 25.351562 -37.5625 25.550781 -37.316406 25.625 -36.828125 L 26.265625 -26.0625 C 26.191406 -25.832031 26.015625 -25.648438 25.734375 -25.515625 C 25.460938 -25.390625 25.175781 -25.328125 24.875 -25.328125 C 24.382812 -25.328125 24.039062 -25.488281 23.84375 -25.8125 C 23.507812 -26.96875 23.144531 -28.113281 22.75 -29.25 C 22.351562 -30.382812 21.832031 -31.421875 21.1875 -32.359375 C 20.550781 -33.296875 19.722656 -34.039062 18.703125 -34.59375 C 17.679688 -35.15625 16.398438 -35.4375 14.859375 -35.4375 C 14.003906 -35.4375 13.085938 -35.253906 12.109375 -34.890625 C 11.140625 -34.535156 10.316406 -33.96875 9.640625 -33.1875 C 8.972656 -32.414062 8.640625 -31.421875 8.640625 -30.203125 C 8.640625 -29.085938 8.925781 -28.125 9.5 -27.3125 C 10.070312 -26.507812 10.96875 -25.753906 12.1875 -25.046875 C 13.40625 -24.335938 14.988281 -23.554688 16.9375 -22.703125 C 21.039062 -20.929688 23.90625 -19.054688 25.53125 -17.078125 C 27.164062 -15.097656 27.984375 -12.992188 27.984375 -10.765625 C 27.984375 -8.753906 27.628906 -7.023438 26.921875 -5.578125 C 26.210938 -4.128906 25.25 -2.941406 24.03125 -2.015625 C 22.820312 -1.097656 21.46875 -0.425781 19.96875 0 C 18.46875 0.425781 16.925781 0.640625 15.34375 0.640625 C 14.09375 0.640625 12.898438 0.488281 11.765625 0.1875 C 10.628906 -0.101562 9.640625 -0.4375 8.796875 -0.8125 C 7.960938 -1.1875 7.382812 -1.457031 7.0625 -1.625 C 6.863281 -1.726562 6.695312 -1.78125 6.5625 -1.78125 C 6.4375 -1.78125 6.335938 -1.742188 6.265625 -1.671875 C 5.972656 -1.441406 5.675781 -1.195312 5.375 -0.9375 C 5.082031 -0.675781 4.804688 -0.410156 4.546875 -0.140625 C 4.316406 0.148438 4.066406 0.296875 3.796875 0.296875 C 3.535156 0.296875 3.351562 0.0820312 3.25 -0.34375 Z M 3.25 -0.34375 "/></g></g></g><g fill="#576066" fill-opacity="1"><g transform="translate(120.32579, 91.758104)"><g><path d="M 16.046875 -22.015625 L 10.21875 -22.015625 C 10.1875 -21.222656 10.148438 -20.101562 10.109375 -18.65625 C 10.078125 -17.207031 10.050781 -15.648438 10.03125 -13.984375 C 10.019531 -12.328125 10.003906 -10.734375 9.984375 -9.203125 C 9.972656 -7.671875 9.96875 -6.394531 9.96875 -5.375 C 9.96875 -4.226562 10.1875 -3.429688 10.625 -2.984375 C 11.070312 -2.535156 11.707031 -2.3125 12.53125 -2.3125 C 13.15625 -2.3125 13.710938 -2.421875 14.203125 -2.640625 C 14.703125 -2.859375 15.21875 -3.128906 15.75 -3.453125 C 15.8125 -3.484375 15.894531 -3.5 16 -3.5 C 16.257812 -3.5 16.492188 -3.359375 16.703125 -3.078125 C 16.921875 -2.804688 17.03125 -2.503906 17.03125 -2.171875 C 17.03125 -1.972656 17 -1.84375 16.9375 -1.78125 C 16.3125 -1.050781 15.421875 -0.441406 14.265625 0.046875 C 13.109375 0.546875 11.925781 0.796875 10.71875 0.796875 C 8.445312 0.796875 6.875 0.171875 6 -1.078125 C 5.125 -2.335938 4.6875 -3.96875 4.6875 -5.96875 C 4.6875 -6 4.6875 -6.03125 4.6875 -6.0625 C 4.6875 -6.101562 4.6875 -6.140625 4.6875 -6.171875 C 4.6875 -6.890625 4.691406 -7.882812 4.703125 -9.15625 C 4.722656 -10.425781 4.738281 -11.800781 4.75 -13.28125 C 4.769531 -14.757812 4.796875 -16.15625 4.828125 -17.46875 C 4.867188 -18.789062 4.894531 -19.878906 4.90625 -20.734375 C 4.925781 -21.585938 4.9375 -22.015625 4.9375 -22.015625 L 2.265625 -22.015625 C 2.066406 -22.015625 1.914062 -22.128906 1.8125 -22.359375 C 1.71875 -22.585938 1.671875 -22.832031 1.671875 -23.09375 C 1.671875 -23.363281 1.710938 -23.613281 1.796875 -23.84375 C 1.878906 -24.070312 1.988281 -24.203125 2.125 -24.234375 C 3.664062 -24.429688 4.921875 -24.945312 5.890625 -25.78125 C 6.867188 -26.625 7.632812 -27.753906 8.1875 -29.171875 C 8.550781 -30.128906 8.78125 -30.710938 8.875 -30.921875 C 8.976562 -31.140625 9.144531 -31.265625 9.375 -31.296875 C 9.832031 -31.296875 10.144531 -31.253906 10.3125 -31.171875 C 10.476562 -31.085938 10.5625 -30.898438 10.5625 -30.609375 C 10.5625 -30.566406 10.5625 -30.53125 10.5625 -30.5 C 10.5625 -30.46875 10.5625 -30.4375 10.5625 -30.40625 L 10.3125 -24.578125 L 16.140625 -24.578125 C 16.335938 -24.578125 16.484375 -24.445312 16.578125 -24.1875 C 16.679688 -23.925781 16.734375 -23.628906 16.734375 -23.296875 C 16.734375 -22.960938 16.679688 -22.664062 16.578125 -22.40625 C 16.484375 -22.144531 16.304688 -22.015625 16.046875 -22.015625 Z M 16.046875 -22.015625 "/></g></g></g><g fill="#576066" fill-opacity="1"><g transform="translate(143.620229, 91.758104)"><g><path d="M 14.0625 -0.09375 L 1.921875 -0.09375 C 1.691406 -0.09375 1.519531 -0.195312 1.40625 -0.40625 C 1.289062 -0.625 1.234375 -0.847656 1.234375 -1.078125 C 1.234375 -1.609375 1.398438 -1.988281 1.734375 -2.21875 C 2.554688 -2.25 3.195312 -2.335938 3.65625 -2.484375 C 4.113281 -2.640625 4.441406 -2.945312 4.640625 -3.40625 C 4.835938 -3.863281 4.953125 -4.566406 4.984375 -5.515625 C 5.015625 -6.472656 5.03125 -7.796875 5.03125 -9.484375 L 5.03125 -18.609375 C 5.03125 -19.765625 4.84375 -20.488281 4.46875 -20.78125 C 4.09375 -21.070312 3.34375 -21.316406 2.21875 -21.515625 C 2.050781 -21.546875 1.925781 -21.632812 1.84375 -21.78125 C 1.769531 -21.9375 1.734375 -22.082031 1.734375 -22.21875 C 1.734375 -22.644531 1.910156 -22.90625 2.265625 -23 C 3.316406 -23.257812 4.457031 -23.617188 5.6875 -24.078125 C 6.925781 -24.546875 7.925781 -24.960938 8.6875 -25.328125 C 8.945312 -25.453125 9.175781 -25.515625 9.375 -25.515625 C 9.738281 -25.515625 9.921875 -25.234375 9.921875 -24.671875 C 9.921875 -24.640625 9.921875 -24.613281 9.921875 -24.59375 C 9.921875 -24.582031 9.921875 -24.5625 9.921875 -24.53125 C 9.921875 -24.363281 9.90625 -24.039062 9.875 -23.5625 C 9.84375 -23.09375 9.804688 -22.609375 9.765625 -22.109375 C 9.734375 -21.617188 9.703125 -21.242188 9.671875 -20.984375 C 10.523438 -22.585938 11.550781 -23.710938 12.75 -24.359375 C 13.957031 -25.003906 15.085938 -25.328125 16.140625 -25.328125 C 16.628906 -25.328125 17.1875 -25.226562 17.8125 -25.03125 C 18.4375 -24.832031 18.972656 -24.476562 19.421875 -23.96875 C 19.867188 -23.457031 20.09375 -22.707031 20.09375 -21.71875 C 20.09375 -20.925781 19.828125 -20.207031 19.296875 -19.5625 C 18.773438 -18.925781 18.082031 -18.609375 17.21875 -18.609375 C 16.46875 -18.609375 15.894531 -18.765625 15.5 -19.078125 C 15.101562 -19.390625 14.820312 -19.773438 14.65625 -20.234375 C 14.425781 -20.992188 14.03125 -21.375 13.46875 -21.375 C 13.070312 -21.375 12.601562 -21.132812 12.0625 -20.65625 C 11.519531 -20.175781 11.035156 -19.507812 10.609375 -18.65625 C 10.179688 -17.800781 9.96875 -16.796875 9.96875 -15.640625 L 9.96875 -10.0625 C 9.96875 -9.050781 9.972656 -8.015625 9.984375 -6.953125 C 10.003906 -5.898438 10.066406 -5 10.171875 -4.25 C 10.203125 -3.914062 10.304688 -3.609375 10.484375 -3.328125 C 10.671875 -3.046875 11.050781 -2.804688 11.625 -2.609375 C 12.195312 -2.410156 13.078125 -2.28125 14.265625 -2.21875 C 14.429688 -2.15625 14.546875 -2.023438 14.609375 -1.828125 C 14.671875 -1.628906 14.703125 -1.429688 14.703125 -1.234375 C 14.703125 -0.972656 14.644531 -0.71875 14.53125 -0.46875 C 14.414062 -0.21875 14.257812 -0.09375 14.0625 -0.09375 Z M 14.0625 -0.09375 "/></g></g></g><g fill="#576066" fill-opacity="1"><g transform="translate(169.826256, 91.758104)"><g><path d="M 22.65625 -12.78125 L 8.140625 -12.78125 C 7.816406 -12.78125 7.65625 -12.617188 7.65625 -12.296875 C 7.71875 -10.285156 8.003906 -8.644531 8.515625 -7.375 C 9.023438 -6.113281 9.664062 -5.144531 10.4375 -4.46875 C 11.207031 -3.789062 12.03125 -3.320312 12.90625 -3.0625 C 13.78125 -2.800781 14.59375 -2.671875 15.34375 -2.671875 C 16.789062 -2.671875 18.039062 -2.890625 19.09375 -3.328125 C 20.15625 -3.773438 21.097656 -4.410156 21.921875 -5.234375 C 22.046875 -5.359375 22.191406 -5.421875 22.359375 -5.421875 C 22.617188 -5.421875 22.890625 -5.273438 23.171875 -4.984375 C 23.453125 -4.691406 23.59375 -4.394531 23.59375 -4.09375 C 23.59375 -3.96875 23.410156 -3.648438 23.046875 -3.140625 C 22.691406 -2.628906 22.125 -2.066406 21.34375 -1.453125 C 20.570312 -0.847656 19.578125 -0.316406 18.359375 0.140625 C 17.140625 0.609375 15.675781 0.84375 13.96875 0.84375 C 11.863281 0.84375 9.921875 0.375 8.140625 -0.5625 C 6.367188 -1.5 4.9375 -2.90625 3.84375 -4.78125 C 2.757812 -6.65625 2.21875 -8.992188 2.21875 -11.796875 C 2.21875 -13.441406 2.472656 -15.050781 2.984375 -16.625 C 3.492188 -18.207031 4.25 -19.648438 5.25 -20.953125 C 6.257812 -22.253906 7.476562 -23.289062 8.90625 -24.0625 C 10.34375 -24.832031 11.984375 -25.21875 13.828125 -25.21875 C 15.660156 -25.21875 17.332031 -24.75 18.84375 -23.8125 C 20.363281 -22.875 21.566406 -21.609375 22.453125 -20.015625 C 23.347656 -18.421875 23.796875 -16.617188 23.796875 -14.609375 C 23.796875 -14.015625 23.742188 -13.5625 23.640625 -13.25 C 23.546875 -12.9375 23.21875 -12.78125 22.65625 -12.78125 Z M 7.890625 -15.34375 L 18.21875 -15.34375 C 18.507812 -15.34375 18.65625 -15.539062 18.65625 -15.9375 C 18.519531 -18.4375 18 -20.203125 17.09375 -21.234375 C 16.195312 -22.273438 15.109375 -22.796875 13.828125 -22.796875 C 12.179688 -22.796875 10.835938 -22.113281 9.796875 -20.75 C 8.765625 -19.382812 8.128906 -17.582031 7.890625 -15.34375 Z M 7.890625 -15.34375 "/></g></g></g><g fill="#576066" fill-opacity="1"><g transform="translate(201.213939, 91.758104)"><g><path d="M 28.140625 -0.09375 L 17.125 -0.09375 C 16.894531 -0.09375 16.722656 -0.179688 16.609375 -0.359375 C 16.492188 -0.546875 16.4375 -0.753906 16.4375 -0.984375 C 16.4375 -1.242188 16.492188 -1.5 16.609375 -1.75 C 16.722656 -2 16.847656 -2.140625 16.984375 -2.171875 C 18.160156 -2.203125 18.90625 -2.40625 19.21875 -2.78125 C 19.53125 -3.164062 19.707031 -3.585938 19.75 -4.046875 C 19.8125 -5.128906 19.859375 -6.125 19.890625 -7.03125 C 19.921875 -7.9375 19.9375 -9.066406 19.9375 -10.421875 L 19.9375 -13.921875 C 19.9375 -15.367188 19.84375 -16.675781 19.65625 -17.84375 C 19.476562 -19.007812 19.085938 -19.9375 18.484375 -20.625 C 17.878906 -21.320312 16.929688 -21.671875 15.640625 -21.671875 C 14.460938 -21.671875 13.441406 -21.375 12.578125 -20.78125 C 11.722656 -20.1875 11.070312 -19.425781 10.625 -18.5 C 10.1875 -17.582031 9.96875 -16.648438 9.96875 -15.703125 L 9.96875 -10.015625 C 9.96875 -9.585938 9.96875 -9.148438 9.96875 -8.703125 C 9.96875 -8.265625 9.96875 -7.832031 9.96875 -7.40625 C 9.96875 -5.988281 10.007812 -4.910156 10.09375 -4.171875 C 10.175781 -3.429688 10.445312 -2.925781 10.90625 -2.65625 C 11.363281 -2.394531 12.117188 -2.234375 13.171875 -2.171875 C 13.472656 -2.035156 13.625 -1.691406 13.625 -1.140625 C 13.625 -0.910156 13.570312 -0.675781 13.46875 -0.4375 C 13.375 -0.207031 13.210938 -0.09375 12.984375 -0.09375 L 1.734375 -0.09375 C 1.492188 -0.09375 1.320312 -0.191406 1.21875 -0.390625 C 1.125 -0.585938 1.078125 -0.800781 1.078125 -1.03125 C 1.078125 -1.625 1.242188 -2.003906 1.578125 -2.171875 C 2.929688 -2.234375 3.769531 -2.445312 4.09375 -2.8125 C 4.425781 -3.175781 4.609375 -3.585938 4.640625 -4.046875 C 4.734375 -5.296875 4.789062 -6.675781 4.8125 -8.1875 C 4.832031 -9.707031 4.84375 -11.390625 4.84375 -13.234375 L 4.84375 -18.703125 C 4.84375 -19.492188 4.757812 -20.050781 4.59375 -20.375 C 4.425781 -20.707031 4.132812 -20.945312 3.71875 -21.09375 C 3.3125 -21.25 2.726562 -21.40625 1.96875 -21.5625 C 1.644531 -21.632812 1.484375 -21.882812 1.484375 -22.3125 C 1.484375 -22.769531 1.679688 -23.015625 2.078125 -23.046875 C 3.191406 -23.210938 4.378906 -23.539062 5.640625 -24.03125 C 6.910156 -24.53125 7.910156 -24.960938 8.640625 -25.328125 C 8.898438 -25.453125 9.128906 -25.515625 9.328125 -25.515625 C 9.722656 -25.515625 9.921875 -25.285156 9.921875 -24.828125 C 9.921875 -24.796875 9.921875 -24.769531 9.921875 -24.75 C 9.921875 -24.738281 9.921875 -24.710938 9.921875 -24.671875 C 9.921875 -24.578125 9.894531 -24.289062 9.84375 -23.8125 C 9.789062 -23.332031 9.75 -22.851562 9.71875 -22.375 C 9.6875 -21.90625 9.671875 -21.601562 9.671875 -21.46875 C 10.523438 -22.6875 11.585938 -23.613281 12.859375 -24.25 C 14.128906 -24.894531 15.453125 -25.21875 16.828125 -25.21875 C 18.703125 -25.21875 20.191406 -24.90625 21.296875 -24.28125 C 22.398438 -23.65625 23.222656 -22.84375 23.765625 -21.84375 C 24.304688 -20.84375 24.660156 -19.789062 24.828125 -18.6875 C 24.992188 -17.582031 25.078125 -16.550781 25.078125 -15.59375 L 25.078125 -10.0625 C 25.078125 -8.945312 25.082031 -7.847656 25.09375 -6.765625 C 25.113281 -5.679688 25.140625 -4.804688 25.171875 -4.140625 C 25.234375 -3.617188 25.460938 -3.175781 25.859375 -2.8125 C 26.253906 -2.445312 27.078125 -2.25 28.328125 -2.21875 C 28.660156 -2.09375 28.828125 -1.734375 28.828125 -1.140625 C 28.828125 -0.867188 28.773438 -0.625 28.671875 -0.40625 C 28.578125 -0.195312 28.398438 -0.09375 28.140625 -0.09375 Z M 28.140625 -0.09375 "/></g></g></g><g fill="#576066" fill-opacity="1"><g transform="translate(236.796291, 91.758104)"><g><path d="M 6.515625 -0.59375 C 5.492188 -0.914062 4.660156 -1.375 4.015625 -1.96875 C 3.378906 -2.5625 3.0625 -3.269531 3.0625 -4.09375 C 3.0625 -5.28125 3.492188 -6.226562 4.359375 -6.9375 C 5.234375 -7.644531 6.332031 -8.242188 7.65625 -8.734375 C 6.4375 -9.191406 5.332031 -10.035156 4.34375 -11.265625 C 3.351562 -12.503906 2.859375 -14.03125 2.859375 -15.84375 C 2.859375 -18.769531 3.710938 -21.0625 5.421875 -22.71875 C 7.140625 -24.382812 9.429688 -25.21875 12.296875 -25.21875 C 13.273438 -25.21875 14.304688 -25.0625 15.390625 -24.75 C 16.484375 -24.4375 17.359375 -24.019531 18.015625 -23.5 C 18.671875 -24.15625 19.410156 -24.753906 20.234375 -25.296875 C 21.054688 -25.835938 21.910156 -26.109375 22.796875 -26.109375 C 23.660156 -26.109375 24.347656 -25.878906 24.859375 -25.421875 C 25.367188 -24.960938 25.625 -24.335938 25.625 -23.546875 C 25.625 -22.984375 25.457031 -22.394531 25.125 -21.78125 C 24.789062 -21.175781 24.148438 -20.875 23.203125 -20.875 C 22.703125 -20.875 22.285156 -21 21.953125 -21.25 C 21.628906 -21.5 21.359375 -21.753906 21.140625 -22.015625 C 20.929688 -22.273438 20.757812 -22.421875 20.625 -22.453125 C 20.4375 -22.523438 20.304688 -22.5625 20.234375 -22.5625 C 19.972656 -22.5625 19.691406 -22.410156 19.390625 -22.109375 C 19.921875 -21.453125 20.34375 -20.597656 20.65625 -19.546875 C 20.96875 -18.492188 21.125 -17.539062 21.125 -16.6875 C 21.125 -15.039062 20.8125 -13.539062 20.1875 -12.1875 C 19.5625 -10.84375 18.566406 -9.773438 17.203125 -8.984375 C 15.835938 -8.191406 14.066406 -7.796875 11.890625 -7.796875 C 10.441406 -7.796875 9.410156 -7.640625 8.796875 -7.328125 C 8.191406 -7.015625 7.832031 -6.6875 7.71875 -6.34375 C 7.601562 -6 7.546875 -5.773438 7.546875 -5.671875 C 7.546875 -5.046875 8.003906 -4.625 8.921875 -4.40625 C 9.847656 -4.195312 11.003906 -4.09375 12.390625 -4.09375 C 15.378906 -4.09375 17.765625 -3.75 19.546875 -3.0625 C 21.328125 -2.375 22.617188 -1.507812 23.421875 -0.46875 C 24.222656 0.5625 24.625 1.65625 24.625 2.8125 C 24.625 4.71875 24.039062 6.320312 22.875 7.625 C 21.707031 8.925781 20.207031 9.894531 18.375 10.53125 C 16.550781 11.175781 14.640625 11.5 12.640625 11.5 C 10.660156 11.5 8.804688 11.269531 7.078125 10.8125 C 5.347656 10.351562 3.957031 9.65625 2.90625 8.71875 C 1.851562 7.78125 1.328125 6.601562 1.328125 5.1875 C 1.328125 4.132812 1.796875 3.054688 2.734375 1.953125 C 3.671875 0.847656 4.929688 0 6.515625 -0.59375 Z M 12.140625 -10.015625 C 12.867188 -10.015625 13.535156 -10.1875 14.140625 -10.53125 C 14.742188 -10.882812 15.234375 -11.53125 15.609375 -12.46875 C 15.992188 -13.40625 16.1875 -14.757812 16.1875 -16.53125 C 16.1875 -17.75 16.070312 -18.832031 15.84375 -19.78125 C 15.613281 -20.738281 15.203125 -21.503906 14.609375 -22.078125 C 14.015625 -22.660156 13.160156 -22.953125 12.046875 -22.953125 C 10.828125 -22.953125 9.835938 -22.382812 9.078125 -21.25 C 8.328125 -20.113281 7.953125 -18.457031 7.953125 -16.28125 C 7.953125 -14.175781 8.28125 -12.601562 8.9375 -11.5625 C 9.59375 -10.53125 10.660156 -10.015625 12.140625 -10.015625 Z M 20.09375 4.546875 C 20.09375 4.316406 20.035156 3.96875 19.921875 3.5 C 19.804688 3.039062 19.484375 2.570312 18.953125 2.09375 C 18.429688 1.613281 17.5625 1.203125 16.34375 0.859375 C 15.125 0.515625 13.410156 0.34375 11.203125 0.34375 C 10.609375 0.34375 9.972656 0.382812 9.296875 0.46875 C 8.628906 0.550781 8.160156 0.675781 7.890625 0.84375 C 7.171875 1.269531 6.601562 1.84375 6.1875 2.5625 C 5.78125 3.289062 5.578125 4.03125 5.578125 4.78125 C 5.578125 7.613281 7.894531 9.03125 12.53125 9.03125 C 14.738281 9.03125 16.550781 8.679688 17.96875 7.984375 C 19.382812 7.296875 20.09375 6.148438 20.09375 4.546875 Z M 20.09375 4.546875 "/></g></g></g><g fill="#576066" fill-opacity="1"><g transform="translate(268.628117, 91.758104)"><g><path d="M 16.046875 -22.015625 L 10.21875 -22.015625 C 10.1875 -21.222656 10.148438 -20.101562 10.109375 -18.65625 C 10.078125 -17.207031 10.050781 -15.648438 10.03125 -13.984375 C 10.019531 -12.328125 10.003906 -10.734375 9.984375 -9.203125 C 9.972656 -7.671875 9.96875 -6.394531 9.96875 -5.375 C 9.96875 -4.226562 10.1875 -3.429688 10.625 -2.984375 C 11.070312 -2.535156 11.707031 -2.3125 12.53125 -2.3125 C 13.15625 -2.3125 13.710938 -2.421875 14.203125 -2.640625 C 14.703125 -2.859375 15.21875 -3.128906 15.75 -3.453125 C 15.8125 -3.484375 15.894531 -3.5 16 -3.5 C 16.257812 -3.5 16.492188 -3.359375 16.703125 -3.078125 C 16.921875 -2.804688 17.03125 -2.503906 17.03125 -2.171875 C 17.03125 -1.972656 17 -1.84375 16.9375 -1.78125 C 16.3125 -1.050781 15.421875 -0.441406 14.265625 0.046875 C 13.109375 0.546875 11.925781 0.796875 10.71875 0.796875 C 8.445312 0.796875 6.875 0.171875 6 -1.078125 C 5.125 -2.335938 4.6875 -3.96875 4.6875 -5.96875 C 4.6875 -6 4.6875 -6.03125 4.6875 -6.0625 C 4.6875 -6.101562 4.6875 -6.140625 4.6875 -6.171875 C 4.6875 -6.890625 4.691406 -7.882812 4.703125 -9.15625 C 4.722656 -10.425781 4.738281 -11.800781 4.75 -13.28125 C 4.769531 -14.757812 4.796875 -16.15625 4.828125 -17.46875 C 4.867188 -18.789062 4.894531 -19.878906 4.90625 -20.734375 C 4.925781 -21.585938 4.9375 -22.015625 4.9375 -22.015625 L 2.265625 -22.015625 C 2.066406 -22.015625 1.914062 -22.128906 1.8125 -22.359375 C 1.71875 -22.585938 1.671875 -22.832031 1.671875 -23.09375 C 1.671875 -23.363281 1.710938 -23.613281 1.796875 -23.84375 C 1.878906 -24.070312 1.988281 -24.203125 2.125 -24.234375 C 3.664062 -24.429688 4.921875 -24.945312 5.890625 -25.78125 C 6.867188 -26.625 7.632812 -27.753906 8.1875 -29.171875 C 8.550781 -30.128906 8.78125 -30.710938 8.875 -30.921875 C 8.976562 -31.140625 9.144531 -31.265625 9.375 -31.296875 C 9.832031 -31.296875 10.144531 -31.253906 10.3125 -31.171875 C 10.476562 -31.085938 10.5625 -30.898438 10.5625 -30.609375 C 10.5625 -30.566406 10.5625 -30.53125 10.5625 -30.5 C 10.5625 -30.46875 10.5625 -30.4375 10.5625 -30.40625 L 10.3125 -24.578125 L 16.140625 -24.578125 C 16.335938 -24.578125 16.484375 -24.445312 16.578125 -24.1875 C 16.679688 -23.925781 16.734375 -23.628906 16.734375 -23.296875 C 16.734375 -22.960938 16.679688 -22.664062 16.578125 -22.40625 C 16.484375 -22.144531 16.304688 -22.015625 16.046875 -22.015625 Z M 16.046875 -22.015625 "/></g></g></g><g fill="#576066" fill-opacity="1"><g transform="translate(291.922554, 91.758104)"><g><path d="M 28.1875 -0.09375 L 17.125 -0.09375 C 16.894531 -0.09375 16.722656 -0.191406 16.609375 -0.390625 C 16.492188 -0.585938 16.4375 -0.800781 16.4375 -1.03125 C 16.4375 -1.300781 16.492188 -1.550781 16.609375 -1.78125 C 16.722656 -2.007812 16.863281 -2.15625 17.03125 -2.21875 C 18.25 -2.320312 19.003906 -2.53125 19.296875 -2.84375 C 19.597656 -3.15625 19.765625 -3.570312 19.796875 -4.09375 C 19.828125 -4.195312 19.847656 -4.453125 19.859375 -4.859375 C 19.878906 -5.273438 19.894531 -5.957031 19.90625 -6.90625 C 19.925781 -7.863281 19.9375 -9.195312 19.9375 -10.90625 L 19.9375 -13.078125 C 19.9375 -14.554688 19.851562 -15.953125 19.6875 -17.265625 C 19.53125 -18.585938 19.15625 -19.660156 18.5625 -20.484375 C 17.96875 -21.304688 17.015625 -21.71875 15.703125 -21.71875 C 14.515625 -21.71875 13.484375 -21.425781 12.609375 -20.84375 C 11.734375 -20.269531 11.066406 -19.515625 10.609375 -18.578125 C 10.148438 -17.640625 9.921875 -16.628906 9.921875 -15.546875 L 9.921875 -10.21875 C 9.921875 -9.101562 9.9375 -7.992188 9.96875 -6.890625 C 10 -5.785156 10.03125 -4.890625 10.0625 -4.203125 C 10.132812 -3.765625 10.34375 -3.332031 10.6875 -2.90625 C 11.03125 -2.476562 11.878906 -2.25 13.234375 -2.21875 C 13.554688 -1.988281 13.71875 -1.628906 13.71875 -1.140625 C 13.71875 -0.867188 13.660156 -0.625 13.546875 -0.40625 C 13.429688 -0.195312 13.242188 -0.09375 12.984375 -0.09375 L 1.875 -0.09375 C 1.644531 -0.09375 1.460938 -0.195312 1.328125 -0.40625 C 1.203125 -0.625 1.140625 -0.847656 1.140625 -1.078125 C 1.140625 -1.347656 1.195312 -1.597656 1.3125 -1.828125 C 1.425781 -2.054688 1.566406 -2.1875 1.734375 -2.21875 C 2.910156 -2.28125 3.703125 -2.492188 4.109375 -2.859375 C 4.523438 -3.222656 4.75 -3.632812 4.78125 -4.09375 C 4.851562 -5.113281 4.894531 -6.109375 4.90625 -7.078125 C 4.925781 -8.054688 4.9375 -9.050781 4.9375 -10.0625 L 4.9375 -31.734375 C 4.9375 -32.554688 4.84375 -33.148438 4.65625 -33.515625 C 4.476562 -33.878906 4.175781 -34.140625 3.75 -34.296875 C 3.320312 -34.460938 2.726562 -34.613281 1.96875 -34.75 C 1.675781 -34.8125 1.53125 -35.054688 1.53125 -35.484375 C 1.53125 -35.953125 1.675781 -36.203125 1.96875 -36.234375 C 2.757812 -36.429688 3.613281 -36.664062 4.53125 -36.9375 C 5.457031 -37.21875 6.347656 -37.515625 7.203125 -37.828125 C 8.054688 -38.140625 8.734375 -38.429688 9.234375 -38.703125 C 9.460938 -38.828125 9.660156 -38.890625 9.828125 -38.890625 C 10.179688 -38.890625 10.359375 -38.613281 10.359375 -38.0625 C 10.359375 -38.019531 10.359375 -37.988281 10.359375 -37.96875 C 10.359375 -37.957031 10.359375 -37.9375 10.359375 -37.90625 C 10.066406 -33.957031 9.921875 -29.796875 9.921875 -25.421875 L 9.921875 -21.5625 C 10.773438 -22.6875 11.816406 -23.578125 13.046875 -24.234375 C 14.285156 -24.890625 15.546875 -25.21875 16.828125 -25.21875 C 17.390625 -25.21875 18.125 -25.132812 19.03125 -24.96875 C 19.9375 -24.8125 20.859375 -24.425781 21.796875 -23.8125 C 22.734375 -23.207031 23.519531 -22.242188 24.15625 -20.921875 C 24.800781 -19.609375 25.125 -17.816406 25.125 -15.546875 L 25.125 -10.171875 C 25.125 -9.640625 25.125 -9.0625 25.125 -8.4375 C 25.125 -7.8125 25.125 -7.21875 25.125 -6.65625 C 25.125 -5.40625 25.171875 -4.46875 25.265625 -3.84375 C 25.367188 -3.21875 25.648438 -2.796875 26.109375 -2.578125 C 26.566406 -2.367188 27.320312 -2.25 28.375 -2.21875 C 28.738281 -2.050781 28.921875 -1.691406 28.921875 -1.140625 C 28.921875 -0.910156 28.863281 -0.675781 28.75 -0.4375 C 28.632812 -0.207031 28.445312 -0.09375 28.1875 -0.09375 Z M 28.1875 -0.09375 "/></g></g></g><g fill="#576066" fill-opacity="1"><g transform="translate(327.6036, 91.758104)"><g><path d="M 2.5625 0.203125 L 1.921875 -8.390625 C 1.921875 -8.390625 1.921875 -8.40625 1.921875 -8.4375 C 1.921875 -8.664062 2.035156 -8.847656 2.265625 -8.984375 C 2.492188 -9.117188 2.726562 -9.1875 2.96875 -9.1875 C 3.425781 -9.1875 3.703125 -9.003906 3.796875 -8.640625 C 3.960938 -8.140625 4.203125 -7.503906 4.515625 -6.734375 C 4.828125 -5.960938 5.253906 -5.171875 5.796875 -4.359375 C 6.335938 -3.554688 7.007812 -2.882812 7.8125 -2.34375 C 8.625 -1.800781 9.609375 -1.53125 10.765625 -1.53125 C 12.367188 -1.53125 13.59375 -1.847656 14.4375 -2.484375 C 15.28125 -3.128906 15.703125 -3.960938 15.703125 -4.984375 C 15.703125 -6.265625 15.125 -7.300781 13.96875 -8.09375 C 12.8125 -8.882812 11.28125 -9.640625 9.375 -10.359375 C 7.4375 -11.117188 5.832031 -12.082031 4.5625 -13.25 C 3.300781 -14.414062 2.671875 -15.957031 2.671875 -17.875 C 2.671875 -17.90625 2.671875 -17.921875 2.671875 -17.921875 C 2.671875 -17.921875 2.671875 -17.9375 2.671875 -17.96875 C 2.671875 -19.613281 3.0625 -20.96875 3.84375 -22.03125 C 4.632812 -23.101562 5.640625 -23.898438 6.859375 -24.421875 C 8.078125 -24.953125 9.296875 -25.21875 10.515625 -25.21875 C 11.460938 -25.21875 12.316406 -25.117188 13.078125 -24.921875 C 13.835938 -24.722656 14.53125 -24.476562 15.15625 -24.1875 C 15.21875 -24.15625 15.289062 -24.117188 15.375 -24.078125 C 15.457031 -24.046875 15.53125 -24.03125 15.59375 -24.03125 C 15.625 -24.03125 15.707031 -24.066406 15.84375 -24.140625 C 16.101562 -24.367188 16.359375 -24.570312 16.609375 -24.75 C 16.859375 -24.9375 17.082031 -25.03125 17.28125 -25.03125 C 17.539062 -25.03125 17.703125 -24.796875 17.765625 -24.328125 L 18.453125 -16.828125 C 18.453125 -16.660156 18.335938 -16.519531 18.109375 -16.40625 C 17.878906 -16.289062 17.632812 -16.234375 17.375 -16.234375 C 17.082031 -16.234375 16.851562 -16.332031 16.6875 -16.53125 C 16.351562 -17.6875 15.945312 -18.75 15.46875 -19.71875 C 15 -20.6875 14.359375 -21.46875 13.546875 -22.0625 C 12.742188 -22.65625 11.679688 -22.953125 10.359375 -22.953125 C 9.304688 -22.953125 8.382812 -22.679688 7.59375 -22.140625 C 6.8125 -21.597656 6.421875 -20.832031 6.421875 -19.84375 C 6.421875 -18.726562 6.929688 -17.863281 7.953125 -17.25 C 8.972656 -16.644531 10.335938 -15.992188 12.046875 -15.296875 C 14.285156 -14.378906 16.128906 -13.257812 17.578125 -11.9375 C 19.023438 -10.625 19.75 -8.898438 19.75 -6.765625 C 19.75 -6.734375 19.75 -6.71875 19.75 -6.71875 C 19.75 -6.71875 19.75 -6.695312 19.75 -6.65625 C 19.75 -4.914062 19.300781 -3.492188 18.40625 -2.390625 C 17.519531 -1.285156 16.425781 -0.472656 15.125 0.046875 C 13.820312 0.578125 12.515625 0.84375 11.203125 0.84375 C 11.171875 0.84375 11.144531 0.84375 11.125 0.84375 C 11.113281 0.84375 11.09375 0.84375 11.0625 0.84375 C 10.039062 0.84375 9.023438 0.703125 8.015625 0.421875 C 7.015625 0.140625 6.203125 -0.164062 5.578125 -0.5 C 5.515625 -0.53125 5.441406 -0.5625 5.359375 -0.59375 C 5.273438 -0.625 5.203125 -0.640625 5.140625 -0.640625 C 4.898438 -0.640625 4.640625 -0.53125 4.359375 -0.3125 C 4.085938 -0.101562 3.867188 0.0820312 3.703125 0.25 C 3.441406 0.507812 3.210938 0.640625 3.015625 0.640625 C 2.816406 0.640625 2.664062 0.492188 2.5625 0.203125 Z M 2.5625 0.203125 "/></g></g></g><g fill="#576066" fill-opacity="1"><g transform="translate(83.904495, 131.901055)"><g><path d="M 12.609375 -0.6875 C 10.796875 -0.6875 9.195312 -1.023438 7.8125 -1.703125 C 6.425781 -2.378906 5.265625 -3.289062 4.328125 -4.4375 C 3.390625 -5.582031 2.679688 -6.878906 2.203125 -8.328125 C 1.734375 -9.785156 1.5 -11.289062 1.5 -12.84375 C 1.5 -14.414062 1.742188 -15.9375 2.234375 -17.40625 C 2.734375 -18.875 3.445312 -20.203125 4.375 -21.390625 C 5.300781 -22.585938 6.441406 -23.53125 7.796875 -24.21875 C 9.148438 -24.90625 10.675781 -25.25 12.375 -25.25 C 14.1875 -25.25 15.78125 -24.914062 17.15625 -24.25 C 18.53125 -23.582031 19.6875 -22.679688 20.625 -21.546875 C 21.570312 -20.410156 22.28125 -19.128906 22.75 -17.703125 C 23.21875 -16.273438 23.453125 -14.785156 23.453125 -13.234375 C 23.453125 -11.660156 23.203125 -10.125 22.703125 -8.625 C 22.210938 -7.132812 21.503906 -5.789062 20.578125 -4.59375 C 19.648438 -3.40625 18.515625 -2.457031 17.171875 -1.75 C 15.828125 -1.039062 14.304688 -0.6875 12.609375 -0.6875 Z M 12.703125 -2.453125 C 13.910156 -2.453125 14.941406 -2.75 15.796875 -3.34375 C 16.660156 -3.945312 17.375 -4.753906 17.9375 -5.765625 C 18.507812 -6.785156 18.929688 -7.921875 19.203125 -9.171875 C 19.472656 -10.429688 19.609375 -11.71875 19.609375 -13.03125 C 19.609375 -14.320312 19.484375 -15.585938 19.234375 -16.828125 C 18.984375 -18.078125 18.578125 -19.203125 18.015625 -20.203125 C 17.460938 -21.210938 16.710938 -22.015625 15.765625 -22.609375 C 14.816406 -23.210938 13.65625 -23.515625 12.28125 -23.515625 C 11.082031 -23.515625 10.046875 -23.210938 9.171875 -22.609375 C 8.296875 -22.015625 7.570312 -21.210938 7 -20.203125 C 6.4375 -19.203125 6.019531 -18.078125 5.75 -16.828125 C 5.476562 -15.585938 5.34375 -14.320312 5.34375 -13.03125 C 5.34375 -11.71875 5.46875 -10.429688 5.71875 -9.171875 C 5.96875 -7.921875 6.375 -6.785156 6.9375 -5.765625 C 7.507812 -4.753906 8.265625 -3.945312 9.203125 -3.34375 C 10.140625 -2.75 11.304688 -2.453125 12.703125 -2.453125 Z M 12.703125 -2.453125 "/></g></g></g><g fill="#576066" fill-opacity="1"><g transform="translate(112.555741, 131.901055)"><g><path d="M 8.609375 -1.3125 L 1.671875 -1.3125 C 1.367188 -1.3125 1.21875 -1.484375 1.21875 -1.828125 C 1.21875 -1.984375 1.25 -2.132812 1.3125 -2.28125 C 1.375 -2.4375 1.4375 -2.550781 1.5 -2.625 C 2.394531 -2.664062 2.9375 -2.765625 3.125 -2.921875 C 3.3125 -3.085938 3.414062 -3.316406 3.4375 -3.609375 C 3.476562 -4.234375 3.507812 -4.84375 3.53125 -5.4375 C 3.550781 -6.03125 3.5625 -6.648438 3.5625 -7.296875 L 3.609375 -14.046875 C 3.609375 -14.203125 3.550781 -14.28125 3.4375 -14.28125 L 1.375 -14.28125 C 1.3125 -14.28125 1.253906 -14.351562 1.203125 -14.5 C 1.160156 -14.65625 1.140625 -14.832031 1.140625 -15.03125 C 1.140625 -15.269531 1.175781 -15.5 1.25 -15.71875 C 1.332031 -15.9375 1.453125 -16.046875 1.609375 -16.046875 L 3.375 -16.046875 C 3.5 -16.046875 3.5625 -16.132812 3.5625 -16.3125 L 3.5625 -18.109375 C 3.5625 -20.378906 4.070312 -22.144531 5.09375 -23.40625 C 6.125 -24.675781 7.40625 -25.3125 8.9375 -25.3125 C 9.351562 -25.3125 9.820312 -25.226562 10.34375 -25.0625 C 10.875 -24.90625 11.328125 -24.65625 11.703125 -24.3125 C 12.085938 -23.976562 12.28125 -23.523438 12.28125 -22.953125 C 12.28125 -22.585938 12.15625 -22.203125 11.90625 -21.796875 C 11.65625 -21.390625 11.234375 -21.1875 10.640625 -21.1875 C 9.566406 -21.1875 9.03125 -21.753906 9.03125 -22.890625 C 9.03125 -22.910156 9.03125 -22.925781 9.03125 -22.9375 C 9.03125 -22.945312 9.03125 -22.960938 9.03125 -22.984375 C 9.03125 -23.578125 8.789062 -23.875 8.3125 -23.875 C 7.8125 -23.875 7.378906 -23.609375 7.015625 -23.078125 C 6.660156 -22.554688 6.484375 -21.535156 6.484375 -20.015625 L 6.484375 -16.171875 C 6.484375 -16.085938 6.535156 -16.046875 6.640625 -16.046875 L 9.625 -16.046875 C 9.738281 -16.046875 9.851562 -15.976562 9.96875 -15.84375 C 10.09375 -15.71875 10.15625 -15.535156 10.15625 -15.296875 C 10.15625 -15.160156 10.117188 -14.960938 10.046875 -14.703125 C 9.984375 -14.441406 9.878906 -14.300781 9.734375 -14.28125 L 6.578125 -14.28125 C 6.472656 -14.28125 6.421875 -14.222656 6.421875 -14.109375 L 6.421875 -7.5 C 6.421875 -6.800781 6.425781 -6.117188 6.4375 -5.453125 C 6.445312 -4.785156 6.460938 -4.234375 6.484375 -3.796875 C 6.503906 -3.554688 6.550781 -3.351562 6.625 -3.1875 C 6.707031 -3.03125 6.90625 -2.90625 7.21875 -2.8125 C 7.539062 -2.726562 8.050781 -2.675781 8.75 -2.65625 C 8.9375 -2.519531 9.03125 -2.289062 9.03125 -1.96875 C 9.03125 -1.8125 8.992188 -1.660156 8.921875 -1.515625 C 8.847656 -1.378906 8.742188 -1.3125 8.609375 -1.3125 Z M 8.609375 -1.3125 "/></g></g></g></svg>