<svg xmlns="http://www.w3.org/2000/svg" xmlns:xlink="http://www.w3.org/1999/xlink" width="500" zoomAndPan="magnify" viewBox="0 0 375 374.999991" height="500" preserveAspectRatio="xMidYMid meet" version="1.0"><defs><g/></defs><g fill="#ffffff" fill-opacity="1"><g transform="translate(118.406247, 194.23985)"><g><path d="M 69.617188 0 L 59.496094 -52.136719 L 45.851562 -52.136719 L 35.039062 -15.566406 L 24.152344 -52.136719 L 10.503906 -52.136719 L 0.382812 0 L 13.035156 0 L 19.167969 -35.960938 L 29.367188 0 L 40.636719 0 L 50.832031 -35.960938 L 56.96875 0 Z M 69.617188 0 "/></g></g></g><g fill="#ffffff" fill-opacity="1"><g transform="translate(188.400608, 194.23985)"><g><path d="M 16.101562 0 L 16.101562 -52.136719 L 4.601562 -52.136719 L 4.601562 0 Z M 16.101562 0 "/></g></g></g><g fill="#ffffff" fill-opacity="1"><g transform="translate(209.099925, 194.23985)"><g><path d="M 16.101562 -23.308594 L 32.585938 0 L 48.074219 0 L 27.296875 -26.070312 L 47.308594 -52.136719 L 32.585938 -52.136719 L 16.101562 -28.828125 L 16.101562 -52.136719 L 4.601562 -52.136719 L 4.601562 0 L 16.101562 0 Z M 16.101562 -23.308594 "/></g></g></g><g fill="#ffffff" fill-opacity="1"><g transform="translate(38.148589, 211.433204)"><g/></g></g><g fill="#ffffff" fill-opacity="1"><g transform="translate(48.140952, 211.433204)"><g><path d="M 7.59375 0 L 7.59375 -1.03125 L 2.300781 -1.03125 L 2.300781 -4.867188 L 7.4375 -4.867188 L 7.4375 -5.914062 L 2.300781 -5.914062 L 2.300781 -9.75 L 7.59375 -9.75 L 7.59375 -10.78125 L 1.1875 -10.78125 L 1.1875 0 Z M 7.59375 0 "/></g></g></g><g fill="#ffffff" fill-opacity="1"><g transform="translate(62.634014, 211.433204)"><g><path d="M 2.300781 -7.945312 L 8.355469 0.664062 L 8.355469 -10.78125 L 7.246094 -10.78125 L 7.246094 -2.855469 L 1.1875 -11.464844 L 1.1875 0 L 2.300781 0 Z M 2.300781 -7.945312 "/></g></g></g><g fill="#ffffff" fill-opacity="1"><g transform="translate(77.888073, 211.433204)"><g><path d="M 11.828125 -5.042969 L 6.214844 -5.042969 L 6.214844 -4.074219 L 10.59375 -4.074219 C 10.257812 -3.140625 9.703125 -2.378906 8.910156 -1.824219 C 8.117188 -1.253906 7.230469 -0.984375 6.261719 -0.984375 C 5.027344 -0.984375 3.980469 -1.410156 3.109375 -2.285156 C 2.25 -3.15625 1.824219 -4.21875 1.824219 -5.4375 C 1.824219 -6.660156 2.25 -7.707031 3.125 -8.578125 C 3.980469 -9.433594 5.027344 -9.878906 6.261719 -9.878906 C 7.183594 -9.878906 8.023438 -9.609375 8.769531 -9.085938 C 9.53125 -8.5625 10.070312 -7.878906 10.417969 -7.007812 L 11.589844 -7.007812 C 11.226562 -8.199219 10.542969 -9.148438 9.5625 -9.878906 C 8.578125 -10.609375 7.4375 -10.988281 6.152344 -10.988281 C 5.453125 -10.988281 4.773438 -10.828125 4.105469 -10.542969 C 3.425781 -10.257812 2.839844 -9.863281 2.332031 -9.355469 C 1.824219 -8.847656 1.425781 -8.261719 1.140625 -7.59375 C 0.855469 -6.914062 0.714844 -6.183594 0.714844 -5.421875 C 0.714844 -4.660156 0.855469 -3.933594 1.140625 -3.265625 C 1.425781 -2.585938 1.824219 -1.996094 2.332031 -1.492188 C 2.839844 -0.984375 3.425781 -0.585938 4.105469 -0.300781 C 4.773438 -0.015625 5.503906 0.125 6.261719 0.125 C 7.5625 0.125 8.738281 -0.285156 9.785156 -1.125 C 10.828125 -1.980469 11.480469 -3.058594 11.71875 -4.375 Z M 11.828125 -5.042969 "/></g></g></g><g fill="#ffffff" fill-opacity="1"><g transform="translate(96.138524, 211.433204)"><g><path d="M 2.300781 0 L 2.300781 -10.78125 L 1.1875 -10.78125 L 1.1875 0 Z M 2.300781 0 "/></g></g></g><g fill="#ffffff" fill-opacity="1"><g transform="translate(105.336366, 211.433204)"><g><path d="M 2.300781 -7.945312 L 8.355469 0.664062 L 8.355469 -10.78125 L 7.246094 -10.78125 L 7.246094 -2.855469 L 1.1875 -11.464844 L 1.1875 0 L 2.300781 0 Z M 2.300781 -7.945312 "/></g></g></g><g fill="#ffffff" fill-opacity="1"><g transform="translate(120.590425, 211.433204)"><g><path d="M 7.59375 0 L 7.59375 -1.03125 L 2.300781 -1.03125 L 2.300781 -4.867188 L 7.4375 -4.867188 L 7.4375 -5.914062 L 2.300781 -5.914062 L 2.300781 -9.75 L 7.59375 -9.75 L 7.59375 -10.78125 L 1.1875 -10.78125 L 1.1875 0 Z M 7.59375 0 "/></g></g></g><g fill="#ffffff" fill-opacity="1"><g transform="translate(135.083488, 211.433204)"><g><path d="M 7.59375 0 L 7.59375 -1.03125 L 2.300781 -1.03125 L 2.300781 -4.867188 L 7.4375 -4.867188 L 7.4375 -5.914062 L 2.300781 -5.914062 L 2.300781 -9.75 L 7.59375 -9.75 L 7.59375 -10.78125 L 1.1875 -10.78125 L 1.1875 0 Z M 7.59375 0 "/></g></g></g><g fill="#ffffff" fill-opacity="1"><g transform="translate(149.57655, 211.433204)"><g><path d="M 2.300781 -5.328125 L 2.300781 -9.71875 L 4.804688 -9.71875 C 5.453125 -9.71875 5.976562 -9.515625 6.375 -9.101562 C 6.753906 -8.6875 6.960938 -8.183594 6.960938 -7.546875 C 6.960938 -6.914062 6.753906 -6.390625 6.34375 -5.960938 C 5.929688 -5.535156 5.421875 -5.328125 4.804688 -5.328125 Z M 8.070312 -7.53125 C 8.070312 -8.453125 7.722656 -9.246094 7.054688 -9.863281 C 6.40625 -10.464844 5.597656 -10.78125 4.644531 -10.78125 L 1.1875 -10.78125 L 1.1875 0 L 2.300781 0 L 2.300781 -4.265625 L 3.582031 -4.265625 L 6.753906 0 L 8.246094 0 L 4.914062 -4.265625 C 5.753906 -4.3125 6.46875 -4.613281 7.054688 -5.167969 C 7.722656 -5.789062 8.070312 -6.582031 8.070312 -7.53125 Z M 8.070312 -7.53125 "/></g></g></g><g fill="#ffffff" fill-opacity="1"><g transform="translate(163.911081, 211.433204)"><g><path d="M 4.390625 -3.042969 C 4.390625 -4.058594 5.199219 -4.773438 6.199219 -5.4375 C 7.121094 -4.296875 8.324219 -3.1875 9.480469 -2.15625 C 8.738281 -1.410156 7.878906 -0.96875 6.960938 -0.96875 C 5.453125 -0.96875 4.390625 -1.726562 4.390625 -3.042969 Z M 5.753906 -9.101562 C 5.753906 -10.148438 6.375 -10.8125 7.339844 -10.8125 C 8.164062 -10.8125 8.65625 -10.179688 8.65625 -9.433594 C 8.65625 -8.355469 7.722656 -7.644531 6.613281 -6.945312 C 6.089844 -7.707031 5.753906 -8.433594 5.753906 -9.101562 Z M 13.222656 -0.96875 C 12.796875 -1.238281 12.050781 -1.710938 11.242188 -2.363281 C 12.066406 -3.519531 12.621094 -4.789062 12.9375 -6.261719 L 11.605469 -6.261719 C 11.402344 -5.027344 10.972656 -4.027344 10.324219 -3.140625 C 9.277344 -4.058594 8.132812 -5.089844 7.246094 -6.121094 C 8.5625 -6.976562 9.816406 -7.914062 9.816406 -9.480469 C 9.816406 -10.894531 8.832031 -11.84375 7.308594 -11.84375 C 5.707031 -11.84375 4.550781 -10.75 4.550781 -9.039062 C 4.550781 -8.132812 4.929688 -7.214844 5.550781 -6.3125 C 4.265625 -5.503906 3.058594 -4.566406 3.058594 -2.980469 C 3.058594 -1.0625 4.535156 0.191406 6.851562 0.191406 C 8.371094 0.191406 9.480469 -0.394531 10.402344 -1.332031 C 11.273438 -0.601562 11.941406 -0.160156 12.542969 0.207031 Z M 13.222656 -0.96875 "/></g></g></g><g fill="#ffffff" fill-opacity="1"><g transform="translate(185.475013, 211.433204)"><g><path d="M 0.316406 -9.785156 L 2.933594 -9.785156 L 2.933594 -0.03125 L 4.042969 -0.03125 L 4.042969 -9.785156 L 6.660156 -9.785156 L 6.660156 -10.8125 L 0.316406 -10.8125 Z M 0.316406 -9.785156 "/></g></g></g><g fill="#ffffff" fill-opacity="1"><g transform="translate(198.160732, 211.433204)"><g><path d="M 7.59375 0 L 7.59375 -1.03125 L 2.300781 -1.03125 L 2.300781 -4.867188 L 7.4375 -4.867188 L 7.4375 -5.914062 L 2.300781 -5.914062 L 2.300781 -9.75 L 7.59375 -9.75 L 7.59375 -10.78125 L 1.1875 -10.78125 L 1.1875 0 Z M 7.59375 0 "/></g></g></g><g fill="#ffffff" fill-opacity="1"><g transform="translate(212.653794, 211.433204)"><g><path d="M 11.082031 -3.296875 L 9.863281 -3.296875 C 9.480469 -2.601562 8.957031 -2.03125 8.292969 -1.617188 C 7.625 -1.1875 6.882812 -0.984375 6.089844 -0.984375 C 4.898438 -0.984375 3.886719 -1.410156 3.042969 -2.300781 C 2.21875 -3.140625 1.824219 -4.171875 1.824219 -5.375 C 1.824219 -6.582031 2.21875 -7.609375 3.042969 -8.46875 C 3.425781 -8.863281 3.886719 -9.179688 4.40625 -9.417969 C 4.914062 -9.65625 5.421875 -9.785156 5.929688 -9.785156 C 6.421875 -9.785156 6.851562 -9.71875 7.230469 -9.609375 C 8.386719 -9.261719 9.261719 -8.5625 9.847656 -7.5 L 11.066406 -7.5 C 10.65625 -8.515625 10.003906 -9.339844 9.101562 -9.972656 C 8.183594 -10.609375 7.183594 -10.925781 6.089844 -10.925781 C 4.582031 -10.925781 3.3125 -10.371094 2.265625 -9.277344 C 1.777344 -8.769531 1.394531 -8.164062 1.125 -7.5 C 0.839844 -6.835938 0.714844 -6.121094 0.714844 -5.375 C 0.714844 -3.851562 1.222656 -2.570312 2.265625 -1.492188 C 3.3125 -0.378906 4.582031 0.160156 6.089844 0.160156 C 7.183594 0.160156 8.183594 -0.160156 9.117188 -0.792969 C 10.019531 -1.425781 10.671875 -2.25 11.082031 -3.296875 Z M 11.082031 -3.296875 "/></g></g></g><g fill="#ffffff" fill-opacity="1"><g transform="translate(229.921304, 211.433204)"><g><path d="M 2.300781 0 L 2.300781 -4.820312 L 7.199219 -4.820312 L 7.199219 0 L 8.308594 0 L 8.308594 -10.78125 L 7.199219 -10.78125 L 7.199219 -5.929688 L 2.300781 -5.929688 L 2.300781 -10.78125 L 1.1875 -10.78125 L 1.1875 0 Z M 2.300781 0 "/></g></g></g><g fill="#ffffff" fill-opacity="1"><g transform="translate(245.127796, 211.433204)"><g><path d="M 2.300781 -7.945312 L 8.355469 0.664062 L 8.355469 -10.78125 L 7.246094 -10.78125 L 7.246094 -2.855469 L 1.1875 -11.464844 L 1.1875 0 L 2.300781 0 Z M 2.300781 -7.945312 "/></g></g></g><g fill="#ffffff" fill-opacity="1"><g transform="translate(260.381855, 211.433204)"><g><path d="M 10.6875 -5.421875 C 10.6875 -4.1875 10.242188 -3.140625 9.386719 -2.285156 C 8.515625 -1.410156 7.46875 -0.984375 6.246094 -0.984375 C 5.027344 -0.984375 3.980469 -1.410156 3.125 -2.285156 C 2.25 -3.140625 1.824219 -4.1875 1.824219 -5.421875 C 1.824219 -6.628906 2.25 -7.675781 3.125 -8.546875 C 3.980469 -9.402344 5.027344 -9.847656 6.246094 -9.847656 C 7.46875 -9.847656 8.515625 -9.402344 9.386719 -8.546875 C 10.242188 -7.675781 10.6875 -6.628906 10.6875 -5.421875 Z M 11.796875 -5.421875 C 11.796875 -6.183594 11.636719 -6.898438 11.351562 -7.578125 C 11.066406 -8.246094 10.671875 -8.832031 10.164062 -9.339844 C 9.65625 -9.832031 9.070312 -10.226562 8.402344 -10.511719 C 7.722656 -10.796875 7.007812 -10.957031 6.246094 -10.957031 C 5.484375 -10.957031 4.757812 -10.796875 4.089844 -10.511719 C 3.425781 -10.226562 2.839844 -9.832031 2.332031 -9.339844 C 1.824219 -8.832031 1.425781 -8.246094 1.140625 -7.578125 C 0.855469 -6.898438 0.714844 -6.183594 0.714844 -5.421875 C 0.714844 -4.660156 0.855469 -3.933594 1.140625 -3.265625 C 1.425781 -2.585938 1.824219 -1.996094 2.332031 -1.492188 C 2.839844 -0.984375 3.425781 -0.585938 4.089844 -0.300781 C 4.757812 -0.015625 5.484375 0.125 6.246094 0.125 C 7.007812 0.125 7.722656 -0.015625 8.402344 -0.300781 C 9.070312 -0.585938 9.65625 -0.984375 10.164062 -1.492188 C 10.671875 -1.996094 11.066406 -2.585938 11.351562 -3.265625 C 11.636719 -3.933594 11.796875 -4.660156 11.796875 -5.421875 Z M 11.796875 -5.421875 "/></g></g></g><g fill="#ffffff" fill-opacity="1"><g transform="translate(278.600603, 211.433204)"><g><path d="M 2.300781 -1.109375 L 2.300781 -10.78125 L 1.1875 -10.78125 L 1.1875 0 L 6.152344 0 L 6.152344 -1.109375 Z M 2.300781 -1.109375 "/></g></g></g><g fill="#ffffff" fill-opacity="1"><g transform="translate(290.778982, 211.433204)"><g><path d="M 10.6875 -5.421875 C 10.6875 -4.1875 10.242188 -3.140625 9.386719 -2.285156 C 8.515625 -1.410156 7.46875 -0.984375 6.246094 -0.984375 C 5.027344 -0.984375 3.980469 -1.410156 3.125 -2.285156 C 2.25 -3.140625 1.824219 -4.1875 1.824219 -5.421875 C 1.824219 -6.628906 2.25 -7.675781 3.125 -8.546875 C 3.980469 -9.402344 5.027344 -9.847656 6.246094 -9.847656 C 7.46875 -9.847656 8.515625 -9.402344 9.386719 -8.546875 C 10.242188 -7.675781 10.6875 -6.628906 10.6875 -5.421875 Z M 11.796875 -5.421875 C 11.796875 -6.183594 11.636719 -6.898438 11.351562 -7.578125 C 11.066406 -8.246094 10.671875 -8.832031 10.164062 -9.339844 C 9.65625 -9.832031 9.070312 -10.226562 8.402344 -10.511719 C 7.722656 -10.796875 7.007812 -10.957031 6.246094 -10.957031 C 5.484375 -10.957031 4.757812 -10.796875 4.089844 -10.511719 C 3.425781 -10.226562 2.839844 -9.832031 2.332031 -9.339844 C 1.824219 -8.832031 1.425781 -8.246094 1.140625 -7.578125 C 0.855469 -6.898438 0.714844 -6.183594 0.714844 -5.421875 C 0.714844 -4.660156 0.855469 -3.933594 1.140625 -3.265625 C 1.425781 -2.585938 1.824219 -1.996094 2.332031 -1.492188 C 2.839844 -0.984375 3.425781 -0.585938 4.089844 -0.300781 C 4.757812 -0.015625 5.484375 0.125 6.246094 0.125 C 7.007812 0.125 7.722656 -0.015625 8.402344 -0.300781 C 9.070312 -0.585938 9.65625 -0.984375 10.164062 -1.492188 C 10.671875 -1.996094 11.066406 -2.585938 11.351562 -3.265625 C 11.636719 -3.933594 11.796875 -4.660156 11.796875 -5.421875 Z M 11.796875 -5.421875 "/></g></g></g><g fill="#ffffff" fill-opacity="1"><g transform="translate(308.997731, 211.433204)"><g><path d="M 11.828125 -5.042969 L 6.214844 -5.042969 L 6.214844 -4.074219 L 10.59375 -4.074219 C 10.257812 -3.140625 9.703125 -2.378906 8.910156 -1.824219 C 8.117188 -1.253906 7.230469 -0.984375 6.261719 -0.984375 C 5.027344 -0.984375 3.980469 -1.410156 3.109375 -2.285156 C 2.25 -3.15625 1.824219 -4.21875 1.824219 -5.4375 C 1.824219 -6.660156 2.25 -7.707031 3.125 -8.578125 C 3.980469 -9.433594 5.027344 -9.878906 6.261719 -9.878906 C 7.183594 -9.878906 8.023438 -9.609375 8.769531 -9.085938 C 9.53125 -8.5625 10.070312 -7.878906 10.417969 -7.007812 L 11.589844 -7.007812 C 11.226562 -8.199219 10.542969 -9.148438 9.5625 -9.878906 C 8.578125 -10.609375 7.4375 -10.988281 6.152344 -10.988281 C 5.453125 -10.988281 4.773438 -10.828125 4.105469 -10.542969 C 3.425781 -10.257812 2.839844 -9.863281 2.332031 -9.355469 C 1.824219 -8.847656 1.425781 -8.261719 1.140625 -7.59375 C 0.855469 -6.914062 0.714844 -6.183594 0.714844 -5.421875 C 0.714844 -4.660156 0.855469 -3.933594 1.140625 -3.265625 C 1.425781 -2.585938 1.824219 -1.996094 2.332031 -1.492188 C 2.839844 -0.984375 3.425781 -0.585938 4.105469 -0.300781 C 4.773438 -0.015625 5.503906 0.125 6.261719 0.125 C 7.5625 0.125 8.738281 -0.285156 9.785156 -1.125 C 10.828125 -1.980469 11.480469 -3.058594 11.71875 -4.375 Z M 11.828125 -5.042969 "/></g></g></g><g fill="#ffffff" fill-opacity="1"><g transform="translate(327.248191, 211.433204)"><g><path d="M 5.359375 -5.074219 L 9.433594 -10.78125 L 8.023438 -10.78125 L 4.804688 -6.167969 L 1.585938 -10.78125 L 0.160156 -10.78125 L 4.25 -5.058594 L 4.25 0 L 5.359375 0 Z M 5.359375 -5.074219 "/></g></g></g></svg>